<?xml version="1.0" encoding="utf-8"?>
<!-- Generator: Adobe Illustrator 26.2.1, SVG Export Plug-In . SVG Version: 6.00 Build 0)  -->
<svg version="1.1" id="Шар_1" xmlns="http://www.w3.org/2000/svg" xmlns:xlink="http://www.w3.org/1999/xlink" x="0px" y="0px"
	 viewBox="0 0 2368.2 2415.9" style="enable-background:new 0 0 2368.2 2415.9;" xml:space="preserve">
<style type="text/css">
	.st0{fill:#FFFFFF;}
</style>
<g>
	<g>
		<rect x="1017.1" y="1018.9" transform="matrix(0.866 -0.5 0.5 0.866 -365.492 680.7377)" class="st0" width="140.8" height="7"/>
	</g>
	<g>
		
			<rect x="1081.8" y="1324.1" transform="matrix(0.5 -0.866 0.866 0.5 -666.9782 1638.2279)" class="st0" width="7" height="145.3"/>
	</g>
	<g>
		<rect x="1410.5" y="1127.6" class="st0" width="7" height="159.7"/>
	</g>
	<g>
		<polygon class="st0" points="1245.9,1436.7 1242.4,1430.7 1367.2,1358.7 1370.6,1364.7 1368.8,1365.8 		"/>
	</g>
	<g>
		<rect x="976" y="1127.1" class="st0" width="7" height="161.2"/>
	</g>
	<g>
		<rect x="1301.4" y="950.4" transform="matrix(0.5 -0.866 0.866 0.5 -232.5478 1640.9901)" class="st0" width="7" height="143"/>
	</g>
	<g>
		<path class="st0" d="M1195.7,1010.5l-38.3-22.1v-44.2l38.3-22.1l38.3,22.1v44.2L1195.7,1010.5z M1164.5,984.4l31.3,18.1l31.3-18.1
			v-36.1l-31.3-18l-31.3,18V984.4z"/>
	</g>
	<g>
		<path class="st0" d="M1436.6,1114.5h-44.2l-22.1-38.3l22.1-38.3h44.2l22.1,38.3L1436.6,1114.5z M1396.5,1107.5h36.1l18.1-31.3
			l-18.1-31.3h-36.1l-18.1,31.3L1396.5,1107.5z"/>
	</g>
	<g>
		<path class="st0" d="M1436.6,1377.5h-44.2l-22.1-38.3l22.1-38.3h44.2l22.1,38.3L1436.6,1377.5z M1396.5,1370.5h36.1l18.1-31.3
			l-18.1-31.3h-36.1l-18.1,31.3L1396.5,1370.5z"/>
	</g>
	<g>
		<path class="st0" d="M1195.7,1494.9l-38.3-22.1v-44.2l38.3-22.1l38.3,22.1v44.2L1195.7,1494.9z M1164.5,1468.8l31.3,18.1
			l31.3-18.1v-36.1l-31.3-18.1l-31.3,18.1V1468.8z"/>
	</g>
	<g>
		<path class="st0" d="M1000.1,1377.5H956l-22.1-38.3L956,1301h44.2l22.1,38.3L1000.1,1377.5z M960,1370.5h36.1l18-31.3l-18-31.3
			H960l-18,31.3L960,1370.5z"/>
	</g>
	<g>
		<path class="st0" d="M1000.1,1114.5H956l-22.1-38.3L956,1038h44.2l22.1,38.3L1000.1,1114.5z M960,1107.5h36.1l18-31.3l-18-31.3
			H960l-18,31.3L960,1107.5z"/>
	</g>
</g>
</svg>
