<?xml version="1.0" encoding="UTF-8"?>
<svg xmlns="http://www.w3.org/2000/svg" xmlns:xlink="http://www.w3.org/1999/xlink" width="2000px" height="2000px" viewBox="0 0 2000 2000" version="1.1">
<g id="surface1">
<path style=" stroke:none;fill-rule:nonzero;fill:rgb(100%,100%,100%);fill-opacity:1;" d="M 849.300781 945.109375 L 952.265625 886.839844 L 955.222656 891.859375 L 852.253906 950.125 Z M 849.300781 945.109375 "/>
<path style=" stroke:none;fill-rule:nonzero;fill:rgb(100%,100%,100%);fill-opacity:1;" d="M 845.757812 1200.796875 L 848.714844 1195.78125 L 955.015625 1255.9375 L 952.0625 1260.953125 Z M 845.757812 1200.796875 "/>
<path style=" stroke:none;fill-rule:nonzero;fill:rgb(100%,100%,100%);fill-opacity:1;" d="M 1175.015625 1005.5625 L 1180.929688 1005.5625 L 1180.929688 1137.753906 L 1175.015625 1137.753906 Z M 1175.015625 1005.5625 "/>
<path style=" stroke:none;fill-rule:nonzero;fill:rgb(100%,100%,100%);fill-opacity:1;" d="M 1036.0625 1261.457031 L 1033.105469 1256.441406 L 1138.433594 1196.835938 L 1141.378906 1201.851562 L 1139.835938 1202.730469 Z M 1036.0625 1261.457031 "/>
<path style=" stroke:none;fill-rule:nonzero;fill:rgb(100%,100%,100%);fill-opacity:1;" d="M 808.09375 1005.179688 L 814.003906 1005.179688 L 814.003906 1138.578125 L 808.09375 1138.578125 Z M 808.09375 1005.179688 "/>
<path style=" stroke:none;fill-rule:nonzero;fill:rgb(100%,100%,100%);fill-opacity:1;" d="M 1032.078125 891.003906 L 1035.03125 885.984375 L 1139.625 945.171875 L 1136.667969 950.191406 Z M 1032.078125 891.003906 "/>
<path style=" stroke:none;fill-rule:nonzero;fill:rgb(100%,100%,100%);fill-opacity:1;" d="M 993.667969 908.699219 L 961.355469 890.414062 L 961.355469 853.855469 L 993.667969 835.570312 L 1025.976562 853.855469 L 1025.976562 890.414062 Z M 967.265625 887.070312 L 993.667969 902.011719 L 1020.066406 887.070312 L 1020.066406 857.199219 L 993.667969 842.257812 L 967.265625 857.199219 Z M 967.265625 887.070312 "/>
<path style=" stroke:none;fill-rule:nonzero;fill:rgb(100%,100%,100%);fill-opacity:1;" d="M 1197.109375 994.753906 L 1159.808594 994.753906 L 1141.152344 963.082031 L 1159.808594 931.414062 L 1197.109375 931.414062 L 1215.765625 963.082031 Z M 1163.21875 988.957031 L 1193.699219 988.957031 L 1208.941406 963.082031 L 1193.699219 937.207031 L 1163.21875 937.207031 L 1147.976562 963.082031 Z M 1163.21875 988.957031 "/>
<path style=" stroke:none;fill-rule:nonzero;fill:rgb(100%,100%,100%);fill-opacity:1;" d="M 1197.109375 1212.445312 L 1159.808594 1212.445312 L 1141.152344 1180.777344 L 1159.808594 1149.109375 L 1197.109375 1149.109375 L 1215.765625 1180.777344 Z M 1163.21875 1206.652344 L 1193.699219 1206.652344 L 1208.941406 1180.777344 L 1193.699219 1154.902344 L 1163.21875 1154.902344 L 1147.976562 1180.777344 Z M 1163.21875 1206.652344 "/>
<path style=" stroke:none;fill-rule:nonzero;fill:rgb(100%,100%,100%);fill-opacity:1;" d="M 993.667969 1309.640625 L 961.355469 1291.355469 L 961.355469 1254.792969 L 993.667969 1236.507812 L 1025.976562 1254.792969 L 1025.976562 1291.355469 Z M 967.265625 1288.011719 L 993.667969 1302.953125 L 1020.066406 1288.011719 L 1020.066406 1258.136719 L 993.667969 1243.199219 L 967.265625 1258.136719 Z M 967.265625 1288.011719 "/>
<path style=" stroke:none;fill-rule:nonzero;fill:rgb(100%,100%,100%);fill-opacity:1;" d="M 828.480469 1212.445312 L 791.175781 1212.445312 L 772.519531 1180.777344 L 791.175781 1149.109375 L 828.480469 1149.109375 L 847.132812 1180.777344 Z M 794.589844 1206.652344 L 825.066406 1206.652344 L 840.308594 1180.777344 L 825.066406 1154.902344 L 794.589844 1154.902344 L 779.34375 1180.777344 Z M 794.589844 1206.652344 "/>
<path style=" stroke:none;fill-rule:nonzero;fill:rgb(100%,100%,100%);fill-opacity:1;" d="M 828.480469 994.753906 L 791.175781 994.753906 L 772.519531 963.082031 L 791.175781 931.414062 L 828.480469 931.414062 L 847.132812 963.082031 Z M 794.589844 988.957031 L 825.066406 988.957031 L 840.308594 963.082031 L 825.066406 937.207031 L 794.589844 937.207031 L 779.34375 963.082031 Z M 794.589844 988.957031 "/>
</g>
</svg>
