<?xml version="1.0" encoding="utf-8"?>
<!-- Generator: Adobe Illustrator 26.2.1, SVG Export Plug-In . SVG Version: 6.00 Build 0)  -->
<svg version="1.1" id="Шар_1" xmlns="http://www.w3.org/2000/svg" xmlns:xlink="http://www.w3.org/1999/xlink" x="0px" y="0px"
	 viewBox="0 0 2368.2 2415.9" style="enable-background:new 0 0 2368.2 2415.9;" xml:space="preserve">
<style type="text/css">
	.st0{fill:#FFFFFF;}
</style>
<g>
	<path class="st0" d="M1455.9,1029.2c99.6-56.7,199.2-113.3,298.8-170"/>
	
		<rect x="1433.4" y="940.6" transform="matrix(0.8691 -0.4946 0.4946 0.8691 -256.8325 917.5591)" class="st0" width="343.8" height="7"/>
</g>
<g>
	<path class="st0" d="M1754.7,1557.2c-99.3-56.5-198.7-113-298-169.5"/>
	
		<rect x="1602.3" y="1301" transform="matrix(0.4945 -0.8692 0.8692 0.4945 -468.0919 2140.0378)" class="st0" width="7" height="342.9"/>
</g>
<g>
	<g>
		<rect x="1017.1" y="1018.9" transform="matrix(0.866 -0.5 0.5 0.866 -365.492 680.7377)" class="st0" width="140.8" height="7"/>
	</g>
	<g>
		
			<rect x="1081.8" y="1324.1" transform="matrix(0.5 -0.866 0.866 0.5 -666.9782 1638.2279)" class="st0" width="7" height="145.3"/>
	</g>
	<g>
		<rect x="1410.5" y="1127.6" class="st0" width="7" height="159.7"/>
	</g>
	<g>
		<polygon class="st0" points="1245.9,1436.7 1242.4,1430.7 1367.2,1358.7 1370.6,1364.7 1368.8,1365.8 		"/>
	</g>
	<g>
		<rect x="976" y="1127.1" class="st0" width="7" height="161.2"/>
	</g>
	<g>
		<rect x="1301.4" y="950.4" transform="matrix(0.5 -0.866 0.866 0.5 -232.5478 1640.9901)" class="st0" width="7" height="143"/>
	</g>
	<g>
		<path class="st0" d="M1195.7,1010.5l-38.3-22.1v-44.2l38.3-22.1l38.3,22.1v44.2L1195.7,1010.5z M1164.5,984.4l31.3,18.1l31.3-18.1
			v-36.1l-31.3-18l-31.3,18V984.4z"/>
	</g>
	<g>
		<path class="st0" d="M1436.6,1114.5h-44.2l-22.1-38.3l22.1-38.3h44.2l22.1,38.3L1436.6,1114.5z M1396.5,1107.5h36.1l18.1-31.3
			l-18.1-31.3h-36.1l-18.1,31.3L1396.5,1107.5z"/>
	</g>
	<g>
		<path class="st0" d="M1436.6,1377.5h-44.2l-22.1-38.3l22.1-38.3h44.2l22.1,38.3L1436.6,1377.5z M1396.5,1370.5h36.1l18.1-31.3
			l-18.1-31.3h-36.1l-18.1,31.3L1396.5,1370.5z"/>
	</g>
	<g>
		<path class="st0" d="M1195.7,1494.9l-38.3-22.1v-44.2l38.3-22.1l38.3,22.1v44.2L1195.7,1494.9z M1164.5,1468.8l31.3,18.1
			l31.3-18.1v-36.1l-31.3-18.1l-31.3,18.1V1468.8z"/>
	</g>
	<g>
		<path class="st0" d="M1000.1,1377.5H956l-22.1-38.3L956,1301h44.2l22.1,38.3L1000.1,1377.5z M960,1370.5h36.1l18-31.3l-18-31.3
			H960l-18,31.3L960,1370.5z"/>
	</g>
	<g>
		<path class="st0" d="M1000.1,1114.5H956l-22.1-38.3L956,1038h44.2l22.1,38.3L1000.1,1114.5z M960,1107.5h36.1l18-31.3l-18-31.3
			H960l-18,31.3L960,1107.5z"/>
	</g>
</g>
<g>
	<g>
		<rect x="1829.4" y="622.8" transform="matrix(0.866 -0.5 0.5 0.866 -61.5022 1023.173)" class="st0" width="98.2" height="7"/>
	</g>
	<g>
		<rect x="1873.4" y="836.8" transform="matrix(0.5 -0.866 0.866 0.5 169.8634 2069.2046)" class="st0" width="7" height="101.4"/>
	</g>
	<g>
		<rect x="2102.7" y="699.7" class="st0" width="7" height="111.4"/>
	</g>
	<g>
		<polygon class="st0" points="1989.5,916.3 1986,910.2 2073,860 2076.5,866.1 2075.2,866.8 		"/>
	</g>
	<g>
		<rect x="1799.7" y="699.4" class="st0" width="7" height="112.4"/>
	</g>
	<g>
		<rect x="2026.7" y="576.2" transform="matrix(0.5 -0.866 0.866 0.5 472.8672 2071.176)" class="st0" width="7" height="99.7"/>
	</g>
	<g>
		<path class="st0" d="M1970,615h-32l-16-27.7l16-27.7h32l16,27.7L1970,615z M1942,608h23.9l12-20.7l-12-20.7H1942l-12,20.7
			L1942,608z"/>
	</g>
	<g>
		<path class="st0" d="M2122.6,691.7h-32l-16-27.7l16-27.7h32l16,27.7L2122.6,691.7z M2094.6,684.7h23.9l12-20.7l-12-20.7h-23.9
			l-12,20.7L2094.6,684.7z"/>
	</g>
	<g>
		<path class="st0" d="M2122.6,875.1h-32l-16-27.7l16-27.7h32l16,27.7L2122.6,875.1z M2094.6,868.1h23.9l12-20.7l-12-20.7h-23.9
			l-12,20.7L2094.6,868.1z"/>
	</g>
	<g>
		<path class="st0" d="M1970,952.9h-32l-16-27.7l16-27.7h32l16,27.7L1970,952.9z M1942,945.9h23.9l12-20.7l-12-20.7H1942l-12,20.7
			L1942,945.9z"/>
	</g>
	<g>
		<path class="st0" d="M1818.2,875.1h-32l-16-27.7l16-27.7h32l16,27.7L1818.2,875.1z M1790.2,868.1h23.9l12-20.7l-12-20.7h-23.9
			l-12,20.7L1790.2,868.1z"/>
	</g>
	<g>
		<path class="st0" d="M1818.2,691.7h-32l-16-27.7l16-27.7h32l16,27.7L1818.2,691.7z M1790.2,684.7h23.9l12-20.7l-12-20.7h-23.9
			l-12,20.7L1790.2,684.7z"/>
	</g>
</g>
<g>
	<g>
		<rect x="1829.2" y="1556.4" transform="matrix(0.866 -0.5 0.5 0.866 -528.3337 1148.1656)" class="st0" width="98.2" height="7"/>
	</g>
	<g>
		
			<rect x="1873.2" y="1770.4" transform="matrix(0.5 -0.866 0.866 0.5 -638.7876 2535.8323)" class="st0" width="7" height="101.4"/>
	</g>
	<g>
		<rect x="2102.5" y="1633.4" class="st0" width="7" height="111.4"/>
	</g>
	<g>
		<polygon class="st0" points="1989.3,1849.9 1985.8,1843.8 2072.8,1793.6 2076.3,1799.7 2075,1800.4 		"/>
	</g>
	<g>
		<rect x="1799.5" y="1633.1" class="st0" width="7" height="112.4"/>
	</g>
	<g>
		<rect x="2026.4" y="1509.8" transform="matrix(0.5 -0.866 0.866 0.5 -335.8027 2537.7893)" class="st0" width="7" height="99.7"/>
	</g>
	<g>
		<path class="st0" d="M1969.8,1548.7h-32l-16-27.7l16-27.7h32l16,27.7L1969.8,1548.7z M1941.8,1541.7h23.9l12-20.7l-12-20.7h-23.9
			l-12,20.7L1941.8,1541.7z"/>
	</g>
	<g>
		<path class="st0" d="M2122.4,1625.3h-32l-16-27.7l16-27.7h32l16,27.7L2122.4,1625.3z M2094.4,1618.3h23.9l12-20.7l-12-20.7h-23.9
			l-12,20.7L2094.4,1618.3z"/>
	</g>
	<g>
		<path class="st0" d="M2122.4,1808.8h-32l-16-27.7l16-27.7h32l16,27.7L2122.4,1808.8z M2094.4,1801.8h23.9l12-20.7l-12-20.7h-23.9
			l-12,20.7L2094.4,1801.8z"/>
	</g>
	<g>
		<path class="st0" d="M1969.8,1886.5h-32l-16-27.7l16-27.7h32l16,27.7L1969.8,1886.5z M1941.8,1879.5h23.9l12-20.7l-12-20.7h-23.9
			l-12,20.7L1941.8,1879.5z"/>
	</g>
	<g>
		<path class="st0" d="M1818,1808.8h-32l-16-27.7l16-27.7h32l16,27.7L1818,1808.8z M1790,1801.8h23.9l12-20.7l-12-20.7H1790
			l-12,20.7L1790,1801.8z"/>
	</g>
	<g>
		<path class="st0" d="M1818,1625.3h-32l-16-27.7l16-27.7h32l16,27.7L1818,1625.3z M1790,1618.3h23.9l12-20.7l-12-20.7H1790
			l-12,20.7L1790,1618.3z"/>
	</g>
</g>
</svg>
