<?xml version="1.0" encoding="utf-8"?>
<!-- Generator: Adobe Illustrator 26.2.1, SVG Export Plug-In . SVG Version: 6.00 Build 0)  -->
<svg version="1.1" id="Шар_1" xmlns="http://www.w3.org/2000/svg" xmlns:xlink="http://www.w3.org/1999/xlink" x="0px" y="0px"
	 viewBox="0 0 2368.2 2415.9" style="enable-background:new 0 0 2368.2 2415.9;" xml:space="preserve">
<style type="text/css">
	.st0{fill:#FFFFFF;}
</style>
<g>
	<path class="st0" d="M633.8,1564.4c99.8-56.8,199.6-113.6,299.4-170.3"/>
	
		<rect x="611.4" y="1475.6" transform="matrix(0.8691 -0.4946 0.4946 0.8691 -629.0121 581.1605)" class="st0" width="344.5" height="7"/>
</g>
<g>
	<path class="st0" d="M1455.9,1029.2c99.6-56.7,199.2-113.3,298.8-170"/>
	
		<rect x="1433.4" y="940.6" transform="matrix(0.8691 -0.4946 0.4946 0.8691 -256.8325 917.5591)" class="st0" width="343.8" height="7"/>
</g>
<g>
	<path class="st0" d="M915.5,1061.8c-100-56.9-200-113.8-300-170.7"/>
	
		<rect x="762" y="803.8" transform="matrix(0.4945 -0.8692 0.8692 0.4945 -461.6885 1158.9645)" class="st0" width="7" height="345.2"/>
</g>
<g>
	<path class="st0" d="M1754.7,1557.2c-99.3-56.5-198.7-113-298-169.5"/>
	
		<rect x="1602.3" y="1301" transform="matrix(0.4945 -0.8692 0.8692 0.4945 -468.0919 2140.0378)" class="st0" width="7" height="342.9"/>
</g>
<g>
	<rect x="1193.7" y="1510.5" class="st0" width="7" height="343"/>
</g>
<g>
	<g>
		<rect x="1017.1" y="1018.9" transform="matrix(0.866 -0.5 0.5 0.866 -365.492 680.7377)" class="st0" width="140.8" height="7"/>
	</g>
	<g>
		
			<rect x="1081.8" y="1324.1" transform="matrix(0.5 -0.866 0.866 0.5 -666.9782 1638.2279)" class="st0" width="7" height="145.3"/>
	</g>
	<g>
		<rect x="1410.5" y="1127.6" class="st0" width="7" height="159.7"/>
	</g>
	<g>
		<polygon class="st0" points="1245.9,1436.7 1242.4,1430.7 1367.2,1358.7 1370.6,1364.7 1368.8,1365.8 		"/>
	</g>
	<g>
		<rect x="976" y="1127.1" class="st0" width="7" height="161.2"/>
	</g>
	<g>
		<rect x="1301.4" y="950.4" transform="matrix(0.5 -0.866 0.866 0.5 -232.5478 1640.9901)" class="st0" width="7" height="143"/>
	</g>
	<g>
		<path class="st0" d="M1195.7,1010.5l-38.3-22.1v-44.2l38.3-22.1l38.3,22.1v44.2L1195.7,1010.5z M1164.5,984.4l31.3,18.1l31.3-18.1
			v-36.1l-31.3-18l-31.3,18V984.4z"/>
	</g>
	<g>
		<path class="st0" d="M1436.6,1114.5h-44.2l-22.1-38.3l22.1-38.3h44.2l22.1,38.3L1436.6,1114.5z M1396.5,1107.5h36.1l18.1-31.3
			l-18.1-31.3h-36.1l-18.1,31.3L1396.5,1107.5z"/>
	</g>
	<g>
		<path class="st0" d="M1436.6,1377.5h-44.2l-22.1-38.3l22.1-38.3h44.2l22.1,38.3L1436.6,1377.5z M1396.5,1370.5h36.1l18.1-31.3
			l-18.1-31.3h-36.1l-18.1,31.3L1396.5,1370.5z"/>
	</g>
	<g>
		<path class="st0" d="M1195.7,1494.9l-38.3-22.1v-44.2l38.3-22.1l38.3,22.1v44.2L1195.7,1494.9z M1164.5,1468.8l31.3,18.1
			l31.3-18.1v-36.1l-31.3-18.1l-31.3,18.1V1468.8z"/>
	</g>
	<g>
		<path class="st0" d="M1000.1,1377.5H956l-22.1-38.3L956,1301h44.2l22.1,38.3L1000.1,1377.5z M960,1370.5h36.1l18-31.3l-18-31.3
			H960l-18,31.3L960,1370.5z"/>
	</g>
	<g>
		<path class="st0" d="M1000.1,1114.5H956l-22.1-38.3L956,1038h44.2l22.1,38.3L1000.1,1114.5z M960,1107.5h36.1l18-31.3l-18-31.3
			H960l-18,31.3L960,1107.5z"/>
	</g>
</g>
<g>
	<g>
		<rect x="1829.4" y="622.8" transform="matrix(0.866 -0.5 0.5 0.866 -61.5022 1023.173)" class="st0" width="98.2" height="7"/>
	</g>
	<g>
		<rect x="1873.4" y="836.8" transform="matrix(0.5 -0.866 0.866 0.5 169.8634 2069.2046)" class="st0" width="7" height="101.4"/>
	</g>
	<g>
		<rect x="2102.7" y="699.7" class="st0" width="7" height="111.4"/>
	</g>
	<g>
		<polygon class="st0" points="1989.5,916.3 1986,910.2 2073,860 2076.5,866.1 2075.2,866.8 		"/>
	</g>
	<g>
		<rect x="1799.7" y="699.4" class="st0" width="7" height="112.4"/>
	</g>
	<g>
		<rect x="2026.7" y="576.2" transform="matrix(0.5 -0.866 0.866 0.5 472.8672 2071.176)" class="st0" width="7" height="99.7"/>
	</g>
	<g>
		<path class="st0" d="M1970,615h-32l-16-27.7l16-27.7h32l16,27.7L1970,615z M1942,608h23.9l12-20.7l-12-20.7H1942l-12,20.7
			L1942,608z"/>
	</g>
	<g>
		<path class="st0" d="M2122.6,691.7h-32l-16-27.7l16-27.7h32l16,27.7L2122.6,691.7z M2094.6,684.7h23.9l12-20.7l-12-20.7h-23.9
			l-12,20.7L2094.6,684.7z"/>
	</g>
	<g>
		<path class="st0" d="M2122.6,875.1h-32l-16-27.7l16-27.7h32l16,27.7L2122.6,875.1z M2094.6,868.1h23.9l12-20.7l-12-20.7h-23.9
			l-12,20.7L2094.6,868.1z"/>
	</g>
	<g>
		<path class="st0" d="M1970,952.9h-32l-16-27.7l16-27.7h32l16,27.7L1970,952.9z M1942,945.9h23.9l12-20.7l-12-20.7H1942l-12,20.7
			L1942,945.9z"/>
	</g>
	<g>
		<path class="st0" d="M1818.2,875.1h-32l-16-27.7l16-27.7h32l16,27.7L1818.2,875.1z M1790.2,868.1h23.9l12-20.7l-12-20.7h-23.9
			l-12,20.7L1790.2,868.1z"/>
	</g>
	<g>
		<path class="st0" d="M1818.2,691.7h-32l-16-27.7l16-27.7h32l16,27.7L1818.2,691.7z M1790.2,684.7h23.9l12-20.7l-12-20.7h-23.9
			l-12,20.7L1790.2,684.7z"/>
	</g>
</g>
<g>
	<g>
		<rect x="288.9" y="647.3" transform="matrix(0.866 -0.5 0.5 0.866 -280.1086 256.1759)" class="st0" width="98.2" height="7"/>
	</g>
	<g>
		<rect x="332.9" y="861.2" transform="matrix(0.5 -0.866 0.866 0.5 -621.4933 747.2548)" class="st0" width="7" height="101.4"/>
	</g>
	<g>
		<rect x="562.2" y="724.1" class="st0" width="7" height="111.4"/>
	</g>
	<g>
		<polygon class="st0" points="449,940.7 445.5,934.6 532.5,884.4 536,890.4 534.7,891.2 		"/>
	</g>
	<g>
		<rect x="259.1" y="723.8" class="st0" width="7" height="112.4"/>
	</g>
	<g>
		<rect x="486.1" y="600.5" transform="matrix(0.5 -0.866 0.866 0.5 -318.4914 749.1694)" class="st0" width="7" height="99.7"/>
	</g>
	<g>
		<path class="st0" d="M429.4,639.4h-32l-16-27.7l16-27.7h32l16,27.7L429.4,639.4z M401.5,632.4h24l12-20.7l-12-20.7h-24l-12,20.7
			L401.5,632.4z"/>
	</g>
	<g>
		<path class="st0" d="M582.1,716.1h-32l-16-27.7l16-27.7h32l16,27.7L582.1,716.1z M554.1,709.1h24l12-20.7l-12-20.7h-24l-12,20.7
			L554.1,709.1z"/>
	</g>
	<g>
		<path class="st0" d="M582.1,899.5h-32l-16-27.7l16-27.7h32l16,27.7L582.1,899.5z M554.1,892.5h24l12-20.7L578,851h-24l-12,20.7
			L554.1,892.5z"/>
	</g>
	<g>
		<path class="st0" d="M429.4,977.3h-32l-16-27.7l16-27.7h32l16,27.7L429.4,977.3z M401.5,970.3h24l12-20.7l-12-20.7h-24l-12,20.7
			L401.5,970.3z"/>
	</g>
	<g>
		<path class="st0" d="M277.6,899.5h-32l-16-27.7l16-27.7h32l16,27.7L277.6,899.5z M249.6,892.5h23.9l12-20.7l-12-20.7h-24l-12,20.7
			L249.6,892.5z"/>
	</g>
	<g>
		<path class="st0" d="M277.6,716.1h-32l-16-27.7l16-27.7h32l16,27.7L277.6,716.1z M249.6,709.1h23.9l12-20.7l-12-20.7h-24l-12,20.7
			L249.6,709.1z"/>
	</g>
</g>
<g>
	<g>
		<rect x="1829.2" y="1556.4" transform="matrix(0.866 -0.5 0.5 0.866 -528.3337 1148.1656)" class="st0" width="98.2" height="7"/>
	</g>
	<g>
		
			<rect x="1873.2" y="1770.4" transform="matrix(0.5 -0.866 0.866 0.5 -638.7876 2535.8323)" class="st0" width="7" height="101.4"/>
	</g>
	<g>
		<rect x="2102.5" y="1633.4" class="st0" width="7" height="111.4"/>
	</g>
	<g>
		<polygon class="st0" points="1989.3,1849.9 1985.8,1843.8 2072.8,1793.6 2076.3,1799.7 2075,1800.4 		"/>
	</g>
	<g>
		<rect x="1799.5" y="1633.1" class="st0" width="7" height="112.4"/>
	</g>
	<g>
		<rect x="2026.4" y="1509.8" transform="matrix(0.5 -0.866 0.866 0.5 -335.8027 2537.7893)" class="st0" width="7" height="99.7"/>
	</g>
	<g>
		<path class="st0" d="M1969.8,1548.7h-32l-16-27.7l16-27.7h32l16,27.7L1969.8,1548.7z M1941.8,1541.7h23.9l12-20.7l-12-20.7h-23.9
			l-12,20.7L1941.8,1541.7z"/>
	</g>
	<g>
		<path class="st0" d="M2122.4,1625.3h-32l-16-27.7l16-27.7h32l16,27.7L2122.4,1625.3z M2094.4,1618.3h23.9l12-20.7l-12-20.7h-23.9
			l-12,20.7L2094.4,1618.3z"/>
	</g>
	<g>
		<path class="st0" d="M2122.4,1808.8h-32l-16-27.7l16-27.7h32l16,27.7L2122.4,1808.8z M2094.4,1801.8h23.9l12-20.7l-12-20.7h-23.9
			l-12,20.7L2094.4,1801.8z"/>
	</g>
	<g>
		<path class="st0" d="M1969.8,1886.5h-32l-16-27.7l16-27.7h32l16,27.7L1969.8,1886.5z M1941.8,1879.5h23.9l12-20.7l-12-20.7h-23.9
			l-12,20.7L1941.8,1879.5z"/>
	</g>
	<g>
		<path class="st0" d="M1818,1808.8h-32l-16-27.7l16-27.7h32l16,27.7L1818,1808.8z M1790,1801.8h23.9l12-20.7l-12-20.7H1790
			l-12,20.7L1790,1801.8z"/>
	</g>
	<g>
		<path class="st0" d="M1818,1625.3h-32l-16-27.7l16-27.7h32l16,27.7L1818,1625.3z M1790,1618.3h23.9l12-20.7l-12-20.7H1790
			l-12,20.7L1790,1618.3z"/>
	</g>
</g>
<g>
	<g>
		<rect x="314.4" y="1556.9" transform="matrix(0.866 -0.5 0.5 0.866 -731.5358 390.8078)" class="st0" width="98.2" height="7"/>
	</g>
	<g>
		<rect x="358.4" y="1770.9" transform="matrix(0.5 -0.866 0.866 0.5 -1396.552 1224.1533)" class="st0" width="7" height="101.4"/>
	</g>
	<g>
		<rect x="587.7" y="1633.8" class="st0" width="7" height="111.4"/>
	</g>
	<g>
		<polygon class="st0" points="474.5,1850.4 471,1844.3 558,1794.1 561.5,1800.2 560.2,1800.9 		"/>
	</g>
	<g>
		<rect x="284.6" y="1633.5" class="st0" width="7" height="112.4"/>
	</g>
	<g>
		<rect x="511.5" y="1510.3" transform="matrix(0.5 -0.866 0.866 0.5 -1093.588 1226.0682)" class="st0" width="7" height="99.7"/>
	</g>
	<g>
		<path class="st0" d="M454.9,1549.1h-32l-16-27.7l16-27.7h32l16,27.7L454.9,1549.1z M426.9,1542.1h24l12-20.7l-12-20.7h-24
			l-12,20.7L426.9,1542.1z"/>
	</g>
	<g>
		<path class="st0" d="M607.6,1625.8h-32l-16-27.7l16-27.7h32l16,27.7L607.6,1625.8z M579.6,1618.8h24l12-20.7l-12-20.7h-24
			l-12,20.7L579.6,1618.8z"/>
	</g>
	<g>
		<path class="st0" d="M607.6,1809.2h-32l-16-27.7l16-27.7h32l16,27.7L607.6,1809.2z M579.6,1802.2h24l12-20.7l-12-20.7h-24
			l-12,20.7L579.6,1802.2z"/>
	</g>
	<g>
		<path class="st0" d="M454.9,1887h-32l-16-27.7l16-27.7h32l16,27.7L454.9,1887z M426.9,1880h24l12-20.7l-12-20.7h-24l-12,20.7
			L426.9,1880z"/>
	</g>
	<g>
		<path class="st0" d="M303.1,1809.2h-32l-16-27.7l16-27.7h32l16,27.7L303.1,1809.2z M275.1,1802.2h24l12-20.7l-12-20.7h-24
			l-12,20.7L275.1,1802.2z"/>
	</g>
	<g>
		<path class="st0" d="M303.1,1625.8h-32l-16-27.7l16-27.7h32l16,27.7L303.1,1625.8z M275.1,1618.8h24l12-20.7l-12-20.7h-24
			l-12,20.7L275.1,1618.8z"/>
	</g>
</g>
<g>
	<g>
		<rect x="1071.7" y="1939.7" transform="matrix(0.866 -0.5 0.5 0.866 -821.4701 820.752)" class="st0" width="98.2" height="7"/>
	</g>
	<g>
		
			<rect x="1115.7" y="2153.7" transform="matrix(0.5 -0.866 0.866 0.5 -1349.4683 2071.4001)" class="st0" width="7" height="101.4"/>
	</g>
	<g>
		<rect x="1345" y="2016.6" class="st0" width="7" height="111.4"/>
	</g>
	<g>
		<polygon class="st0" points="1231.8,2233.2 1228.3,2227.1 1315.3,2176.9 1318.8,2183 1317.5,2183.7 		"/>
	</g>
	<g>
		<rect x="1041.9" y="2016.3" class="st0" width="7" height="112.4"/>
	</g>
	<g>
		
			<rect x="1268.8" y="1893.1" transform="matrix(0.5 -0.866 0.866 0.5 -1046.5002 2073.3372)" class="st0" width="7" height="99.7"/>
	</g>
	<g>
		<path class="st0" d="M1196.2,1936.2l-27.7-16v-32l27.7-16l27.7,16v32L1196.2,1936.2z M1175.5,1916.2l20.7,12l20.7-12v-23.9
			l-20.7-12l-20.7,12V1916.2z"/>
	</g>
	<g>
		<path class="st0" d="M1364.9,2008.6h-32l-16-27.7l16-27.7h32l16,27.7L1364.9,2008.6z M1336.9,2001.6h23.9l12-20.7l-12-20.7h-23.9
			l-12,20.7L1336.9,2001.6z"/>
	</g>
	<g>
		<path class="st0" d="M1364.9,2192h-32l-16-27.7l16-27.7h32l16,27.7L1364.9,2192z M1336.9,2185h23.9l12-20.7l-12-20.7h-23.9
			l-12,20.7L1336.9,2185z"/>
	</g>
	<g>
		<path class="st0" d="M1196.2,2274.1l-27.7-16v-32l27.7-16l27.7,16v32L1196.2,2274.1z M1175.5,2254l20.7,12l20.7-12v-23.9l-20.7-12
			l-20.7,12V2254z"/>
	</g>
	<g>
		<path class="st0" d="M1060.4,2192h-32l-16-27.7l16-27.7h32l16,27.7L1060.4,2192z M1032.4,2185h24l12-20.7l-12-20.7h-24l-12,20.7
			L1032.4,2185z"/>
	</g>
	<g>
		<path class="st0" d="M1060.4,2008.6h-32l-16-27.7l16-27.7h32l16,27.7L1060.4,2008.6z M1032.4,2001.6h24l12-20.7l-12-20.7h-24
			l-12,20.7L1032.4,2001.6z"/>
	</g>
</g>
</svg>
