<?xml version="1.0" encoding="UTF-8"?>
<svg xmlns="http://www.w3.org/2000/svg" xmlns:xlink="http://www.w3.org/1999/xlink" width="2000px" height="2000px" viewBox="0 0 2000 2000" version="1.1">
<g id="surface1">
<path style=" stroke:none;fill-rule:nonzero;fill:rgb(100%,100%,100%);fill-opacity:1;" d="M 519.148438 1367.109375 C 603.433594 1320.109375 687.722656 1273.113281 772.007812 1226.113281 "/>
<path style=" stroke:none;fill-rule:nonzero;fill:rgb(100%,100%,100%);fill-opacity:1;" d="M 517.726562 1364.527344 L 770.5625 1223.496094 L 773.488281 1228.53125 L 520.648438 1369.5625 Z M 517.726562 1364.527344 "/>
<path style=" stroke:none;fill-rule:nonzero;fill:rgb(100%,100%,100%);fill-opacity:1;" d="M 1213.402344 924.113281 C 1297.515625 877.207031 1381.628906 830.304688 1465.75 783.398438 "/>
<path style=" stroke:none;fill-rule:nonzero;fill:rgb(100%,100%,100%);fill-opacity:1;" d="M 1211.933594 921.519531 L 1464.253906 780.777344 L 1467.179688 785.8125 L 1214.855469 926.554688 Z M 1211.933594 921.519531 "/>
<path style=" stroke:none;fill-rule:nonzero;fill:rgb(100%,100%,100%);fill-opacity:1;" d="M 757.023438 951.097656 C 672.5625 904 588.09375 856.902344 503.636719 809.800781 "/>
<path style=" stroke:none;fill-rule:nonzero;fill:rgb(100%,100%,100%);fill-opacity:1;" d="M 502.195312 812.304688 L 505.117188 807.265625 L 758.511719 948.5625 L 755.589844 953.601562 Z M 502.195312 812.304688 "/>
<path style=" stroke:none;fill-rule:nonzero;fill:rgb(100%,100%,100%);fill-opacity:1;" d="M 1465.75 1361.226562 C 1381.863281 1314.449219 1297.96875 1267.664062 1214.085938 1220.890625 "/>
<path style=" stroke:none;fill-rule:nonzero;fill:rgb(100%,100%,100%);fill-opacity:1;" d="M 1212.652344 1223.378906 L 1215.574219 1218.339844 L 1467.246094 1358.675781 L 1464.320312 1363.710938 Z M 1212.652344 1223.378906 "/>
<path style=" stroke:none;fill-rule:nonzero;fill:rgb(100%,100%,100%);fill-opacity:1;" d="M 991.984375 538.570312 L 997.898438 538.570312 L 997.898438 822.484375 L 991.984375 822.484375 Z M 991.984375 538.570312 "/>
<path style=" stroke:none;fill-rule:nonzero;fill:rgb(100%,100%,100%);fill-opacity:1;" d="M 991.984375 1322.554688 L 997.898438 1322.554688 L 997.898438 1606.46875 L 991.984375 1606.46875 Z M 991.984375 1322.554688 "/>
<path style=" stroke:none;fill-rule:nonzero;fill:rgb(100%,100%,100%);fill-opacity:1;" d="M 849.300781 945.109375 L 952.265625 886.839844 L 955.222656 891.859375 L 852.253906 950.125 Z M 849.300781 945.109375 "/>
<path style=" stroke:none;fill-rule:nonzero;fill:rgb(100%,100%,100%);fill-opacity:1;" d="M 845.757812 1200.796875 L 848.714844 1195.78125 L 955.015625 1255.9375 L 952.0625 1260.953125 Z M 845.757812 1200.796875 "/>
<path style=" stroke:none;fill-rule:nonzero;fill:rgb(100%,100%,100%);fill-opacity:1;" d="M 1175.015625 1005.5625 L 1180.929688 1005.5625 L 1180.929688 1137.753906 L 1175.015625 1137.753906 Z M 1175.015625 1005.5625 "/>
<path style=" stroke:none;fill-rule:nonzero;fill:rgb(100%,100%,100%);fill-opacity:1;" d="M 1036.0625 1261.457031 L 1033.105469 1256.441406 L 1138.433594 1196.835938 L 1141.378906 1201.851562 L 1139.835938 1202.730469 Z M 1036.0625 1261.457031 "/>
<path style=" stroke:none;fill-rule:nonzero;fill:rgb(100%,100%,100%);fill-opacity:1;" d="M 808.09375 1005.179688 L 814.003906 1005.179688 L 814.003906 1138.578125 L 808.09375 1138.578125 Z M 808.09375 1005.179688 "/>
<path style=" stroke:none;fill-rule:nonzero;fill:rgb(100%,100%,100%);fill-opacity:1;" d="M 1032.078125 891.003906 L 1035.03125 885.984375 L 1139.625 945.171875 L 1136.667969 950.191406 Z M 1032.078125 891.003906 "/>
<path style=" stroke:none;fill-rule:nonzero;fill:rgb(100%,100%,100%);fill-opacity:1;" d="M 993.667969 908.699219 L 961.355469 890.414062 L 961.355469 853.855469 L 993.667969 835.570312 L 1025.976562 853.855469 L 1025.976562 890.414062 Z M 967.265625 887.070312 L 993.667969 902.011719 L 1020.066406 887.070312 L 1020.066406 857.199219 L 993.667969 842.257812 L 967.265625 857.199219 Z M 967.265625 887.070312 "/>
<path style=" stroke:none;fill-rule:nonzero;fill:rgb(100%,100%,100%);fill-opacity:1;" d="M 1197.109375 994.753906 L 1159.808594 994.753906 L 1141.152344 963.082031 L 1159.808594 931.414062 L 1197.109375 931.414062 L 1215.765625 963.082031 Z M 1163.21875 988.957031 L 1193.699219 988.957031 L 1208.941406 963.082031 L 1193.699219 937.207031 L 1163.21875 937.207031 L 1147.976562 963.082031 Z M 1163.21875 988.957031 "/>
<path style=" stroke:none;fill-rule:nonzero;fill:rgb(100%,100%,100%);fill-opacity:1;" d="M 1197.109375 1212.445312 L 1159.808594 1212.445312 L 1141.152344 1180.777344 L 1159.808594 1149.109375 L 1197.109375 1149.109375 L 1215.765625 1180.777344 Z M 1163.21875 1206.652344 L 1193.699219 1206.652344 L 1208.941406 1180.777344 L 1193.699219 1154.902344 L 1163.21875 1154.902344 L 1147.976562 1180.777344 Z M 1163.21875 1206.652344 "/>
<path style=" stroke:none;fill-rule:nonzero;fill:rgb(100%,100%,100%);fill-opacity:1;" d="M 993.667969 1309.640625 L 961.355469 1291.355469 L 961.355469 1254.792969 L 993.667969 1236.507812 L 1025.976562 1254.792969 L 1025.976562 1291.355469 Z M 967.265625 1288.011719 L 993.667969 1302.953125 L 1020.066406 1288.011719 L 1020.066406 1258.136719 L 993.667969 1243.199219 L 967.265625 1258.136719 Z M 967.265625 1288.011719 "/>
<path style=" stroke:none;fill-rule:nonzero;fill:rgb(100%,100%,100%);fill-opacity:1;" d="M 828.480469 1212.445312 L 791.175781 1212.445312 L 772.519531 1180.777344 L 791.175781 1149.109375 L 828.480469 1149.109375 L 847.132812 1180.777344 Z M 794.589844 1206.652344 L 825.066406 1206.652344 L 840.308594 1180.777344 L 825.066406 1154.902344 L 794.589844 1154.902344 L 779.34375 1180.777344 Z M 794.589844 1206.652344 "/>
<path style=" stroke:none;fill-rule:nonzero;fill:rgb(100%,100%,100%);fill-opacity:1;" d="M 828.480469 994.753906 L 791.175781 994.753906 L 772.519531 963.082031 L 791.175781 931.414062 L 828.480469 931.414062 L 847.132812 963.082031 Z M 794.589844 988.957031 L 825.066406 988.957031 L 840.308594 963.082031 L 825.066406 937.207031 L 794.589844 937.207031 L 779.34375 963.082031 Z M 794.589844 988.957031 "/>
<path style=" stroke:none;fill-rule:nonzero;fill:rgb(100%,100%,100%);fill-opacity:1;" d="M 1532.863281 608.496094 L 1604.679688 567.851562 L 1607.636719 572.871094 L 1535.816406 613.511719 Z M 1532.863281 608.496094 "/>
<path style=" stroke:none;fill-rule:nonzero;fill:rgb(100%,100%,100%);fill-opacity:1;" d="M 1530.410156 788.371094 L 1533.367188 783.355469 L 1607.511719 825.3125 L 1604.554688 830.332031 Z M 1530.410156 788.371094 "/>
<path style=" stroke:none;fill-rule:nonzero;fill:rgb(100%,100%,100%);fill-opacity:1;" d="M 1759.632812 651.421875 L 1765.546875 651.421875 L 1765.546875 743.625 L 1759.632812 743.625 Z M 1759.632812 651.421875 "/>
<path style=" stroke:none;fill-rule:nonzero;fill:rgb(100%,100%,100%);fill-opacity:1;" d="M 1664.050781 830.667969 L 1661.09375 825.652344 L 1734.558594 784.078125 L 1737.515625 789.101562 L 1736.433594 789.714844 Z M 1664.050781 830.667969 "/>
<path style=" stroke:none;fill-rule:nonzero;fill:rgb(100%,100%,100%);fill-opacity:1;" d="M 1503.710938 651.160156 L 1509.625 651.160156 L 1509.625 744.195312 L 1503.710938 744.195312 Z M 1503.710938 651.160156 "/>
<path style=" stroke:none;fill-rule:nonzero;fill:rgb(100%,100%,100%);fill-opacity:1;" d="M 1660.398438 572.320312 L 1663.355469 567.300781 L 1736.296875 608.582031 L 1733.34375 613.597656 Z M 1660.398438 572.320312 "/>
<path style=" stroke:none;fill-rule:nonzero;fill:rgb(100%,100%,100%);fill-opacity:1;" d="M 1647.566406 581.332031 L 1620.515625 581.332031 L 1606.988281 558.367188 L 1620.515625 535.40625 L 1647.566406 535.40625 L 1661.09375 558.367188 Z M 1623.921875 575.535156 L 1644.144531 575.535156 L 1654.261719 558.367188 L 1644.144531 541.203125 L 1623.921875 541.203125 L 1613.804688 558.367188 Z M 1623.921875 575.535156 "/>
<path style=" stroke:none;fill-rule:nonzero;fill:rgb(100%,100%,100%);fill-opacity:1;" d="M 1776.449219 644.769531 L 1749.398438 644.769531 L 1735.867188 621.808594 L 1749.398438 598.84375 L 1776.449219 598.84375 L 1789.976562 621.808594 Z M 1752.808594 638.972656 L 1773.035156 638.972656 L 1783.152344 621.808594 L 1773.035156 604.640625 L 1752.808594 604.640625 L 1742.691406 621.808594 Z M 1752.808594 638.972656 "/>
<path style=" stroke:none;fill-rule:nonzero;fill:rgb(100%,100%,100%);fill-opacity:1;" d="M 1776.449219 796.609375 L 1749.398438 796.609375 L 1735.867188 773.648438 L 1749.398438 750.683594 L 1776.449219 750.683594 L 1789.976562 773.648438 Z M 1752.808594 790.8125 L 1773.035156 790.8125 L 1783.152344 773.648438 L 1773.035156 756.480469 L 1752.808594 756.480469 L 1742.691406 773.648438 Z M 1752.808594 790.8125 "/>
<path style=" stroke:none;fill-rule:nonzero;fill:rgb(100%,100%,100%);fill-opacity:1;" d="M 1647.566406 860.980469 L 1620.515625 860.980469 L 1606.988281 838.019531 L 1620.515625 815.058594 L 1647.566406 815.058594 L 1661.09375 838.019531 Z M 1623.921875 855.1875 L 1644.144531 855.1875 L 1654.261719 838.019531 L 1644.144531 820.851562 L 1623.921875 820.851562 L 1613.804688 838.019531 Z M 1623.921875 855.1875 "/>
<path style=" stroke:none;fill-rule:nonzero;fill:rgb(100%,100%,100%);fill-opacity:1;" d="M 1519.34375 796.609375 L 1492.292969 796.609375 L 1478.765625 773.648438 L 1492.292969 750.683594 L 1519.34375 750.683594 L 1532.871094 773.648438 Z M 1495.695312 790.8125 L 1515.921875 790.8125 L 1526.039062 773.648438 L 1515.921875 756.480469 L 1495.695312 756.480469 L 1485.578125 773.648438 Z M 1495.695312 790.8125 "/>
<path style=" stroke:none;fill-rule:nonzero;fill:rgb(100%,100%,100%);fill-opacity:1;" d="M 1519.34375 644.769531 L 1492.292969 644.769531 L 1478.765625 621.808594 L 1492.292969 598.84375 L 1519.34375 598.84375 L 1532.871094 621.808594 Z M 1495.695312 638.972656 L 1515.921875 638.972656 L 1526.039062 621.808594 L 1515.921875 604.640625 L 1495.695312 604.640625 L 1485.578125 621.808594 Z M 1495.695312 638.972656 "/>
<path style=" stroke:none;fill-rule:nonzero;fill:rgb(100%,100%,100%);fill-opacity:1;" d="M 231.882812 628.703125 L 303.699219 588.0625 L 306.65625 593.082031 L 234.835938 633.722656 Z M 231.882812 628.703125 "/>
<path style=" stroke:none;fill-rule:nonzero;fill:rgb(100%,100%,100%);fill-opacity:1;" d="M 229.402344 808.542969 L 232.359375 803.527344 L 306.503906 845.484375 L 303.546875 850.503906 Z M 229.402344 808.542969 "/>
<path style=" stroke:none;fill-rule:nonzero;fill:rgb(100%,100%,100%);fill-opacity:1;" d="M 458.597656 671.613281 L 464.507812 671.613281 L 464.507812 763.8125 L 458.597656 763.8125 Z M 458.597656 671.613281 "/>
<path style=" stroke:none;fill-rule:nonzero;fill:rgb(100%,100%,100%);fill-opacity:1;" d="M 363.023438 850.859375 L 360.066406 845.84375 L 433.53125 804.265625 L 436.480469 809.28125 L 435.398438 809.894531 Z M 363.023438 850.859375 "/>
<path style=" stroke:none;fill-rule:nonzero;fill:rgb(100%,100%,100%);fill-opacity:1;" d="M 202.675781 671.347656 L 208.585938 671.347656 L 208.585938 764.382812 L 202.675781 764.382812 Z M 202.675781 671.347656 "/>
<path style=" stroke:none;fill-rule:nonzero;fill:rgb(100%,100%,100%);fill-opacity:1;" d="M 359.347656 592.46875 L 362.300781 587.449219 L 435.246094 628.730469 L 432.292969 633.746094 Z M 359.347656 592.46875 "/>
<path style=" stroke:none;fill-rule:nonzero;fill:rgb(100%,100%,100%);fill-opacity:1;" d="M 346.53125 601.519531 L 319.480469 601.519531 L 305.953125 578.558594 L 319.480469 555.597656 L 346.53125 555.597656 L 360.058594 578.558594 Z M 322.890625 595.726562 L 343.117188 595.726562 L 353.234375 578.558594 L 343.117188 561.390625 L 322.890625 561.390625 L 312.773438 578.558594 Z M 322.890625 595.726562 "/>
<path style=" stroke:none;fill-rule:nonzero;fill:rgb(100%,100%,100%);fill-opacity:1;" d="M 475.421875 664.957031 L 448.371094 664.957031 L 434.839844 641.996094 L 448.371094 619.035156 L 475.421875 619.035156 L 488.949219 641.996094 Z M 451.78125 659.164062 L 472.007812 659.164062 L 482.125 641.996094 L 472.007812 624.828125 L 451.78125 624.828125 L 441.664062 641.996094 Z M 451.78125 659.164062 "/>
<path style=" stroke:none;fill-rule:nonzero;fill:rgb(100%,100%,100%);fill-opacity:1;" d="M 475.421875 816.789062 L 448.371094 816.789062 L 434.839844 793.828125 L 448.371094 770.867188 L 475.421875 770.867188 L 488.949219 793.828125 Z M 451.78125 810.996094 L 472.007812 810.996094 L 482.125 793.828125 L 472.007812 776.660156 L 451.78125 776.660156 L 441.664062 793.828125 Z M 451.78125 810.996094 "/>
<path style=" stroke:none;fill-rule:nonzero;fill:rgb(100%,100%,100%);fill-opacity:1;" d="M 346.53125 881.160156 L 319.480469 881.160156 L 305.953125 858.199219 L 319.480469 835.238281 L 346.53125 835.238281 L 360.058594 858.199219 Z M 322.890625 875.367188 L 343.117188 875.367188 L 353.234375 858.199219 L 343.117188 841.03125 L 322.890625 841.03125 L 312.773438 858.199219 Z M 322.890625 875.367188 "/>
<path style=" stroke:none;fill-rule:nonzero;fill:rgb(100%,100%,100%);fill-opacity:1;" d="M 218.308594 816.789062 L 191.257812 816.789062 L 177.726562 793.828125 L 191.257812 770.867188 L 218.308594 770.867188 L 231.835938 793.828125 Z M 194.667969 810.996094 L 214.894531 810.996094 L 225.011719 793.828125 L 214.894531 776.660156 L 194.667969 776.660156 L 184.550781 793.828125 Z M 194.667969 810.996094 "/>
<path style=" stroke:none;fill-rule:nonzero;fill:rgb(100%,100%,100%);fill-opacity:1;" d="M 218.308594 664.957031 L 191.257812 664.957031 L 177.726562 641.996094 L 191.257812 619.035156 L 218.308594 619.035156 L 231.835938 641.996094 Z M 194.667969 659.164062 L 214.894531 659.164062 L 225.011719 641.996094 L 214.894531 624.828125 L 194.667969 624.828125 L 184.550781 641.996094 Z M 194.667969 659.164062 "/>
<path style=" stroke:none;fill-rule:nonzero;fill:rgb(100%,100%,100%);fill-opacity:1;" d="M 893.097656 266.273438 L 964.917969 225.632812 L 967.871094 230.648438 L 896.054688 271.292969 Z M 893.097656 266.273438 "/>
<path style=" stroke:none;fill-rule:nonzero;fill:rgb(100%,100%,100%);fill-opacity:1;" d="M 890.648438 446.128906 L 893.605469 441.109375 L 967.75 483.070312 L 964.792969 488.085938 Z M 890.648438 446.128906 "/>
<path style=" stroke:none;fill-rule:nonzero;fill:rgb(100%,100%,100%);fill-opacity:1;" d="M 1119.855469 309.179688 L 1125.765625 309.179688 L 1125.765625 401.378906 L 1119.855469 401.378906 Z M 1119.855469 309.179688 "/>
<path style=" stroke:none;fill-rule:nonzero;fill:rgb(100%,100%,100%);fill-opacity:1;" d="M 1024.269531 488.425781 L 1021.316406 483.410156 L 1094.78125 441.832031 L 1097.726562 446.855469 L 1096.644531 447.460938 Z M 1024.269531 488.425781 "/>
<path style=" stroke:none;fill-rule:nonzero;fill:rgb(100%,100%,100%);fill-opacity:1;" d="M 863.921875 308.914062 L 869.835938 308.914062 L 869.835938 401.953125 L 863.921875 401.953125 Z M 863.921875 308.914062 "/>
<path style=" stroke:none;fill-rule:nonzero;fill:rgb(100%,100%,100%);fill-opacity:1;" d="M 1020.621094 230.046875 L 1023.574219 225.027344 L 1096.519531 266.308594 L 1093.566406 271.324219 Z M 1020.621094 230.046875 "/>
<path style=" stroke:none;fill-rule:nonzero;fill:rgb(100%,100%,100%);fill-opacity:1;" d="M 994.257812 242.636719 L 970.832031 229.375 L 970.832031 202.863281 L 994.257812 189.601562 L 1017.683594 202.863281 L 1017.683594 229.375 Z M 976.734375 226.03125 L 994.25 235.949219 L 1011.765625 226.03125 L 1011.765625 206.207031 L 994.25 196.292969 L 976.734375 206.207031 Z M 976.734375 226.03125 "/>
<path style=" stroke:none;fill-rule:nonzero;fill:rgb(100%,100%,100%);fill-opacity:1;" d="M 1136.667969 302.523438 L 1109.617188 302.523438 L 1096.089844 279.5625 L 1109.617188 256.601562 L 1136.667969 256.601562 L 1150.195312 279.5625 Z M 1113.03125 296.730469 L 1133.257812 296.730469 L 1143.375 279.5625 L 1133.257812 262.394531 L 1113.03125 262.394531 L 1102.914062 279.5625 Z M 1113.03125 296.730469 "/>
<path style=" stroke:none;fill-rule:nonzero;fill:rgb(100%,100%,100%);fill-opacity:1;" d="M 1136.667969 454.363281 L 1109.617188 454.363281 L 1096.089844 431.402344 L 1109.617188 408.441406 L 1136.667969 408.441406 L 1150.195312 431.402344 Z M 1113.03125 448.570312 L 1133.257812 448.570312 L 1143.375 431.402344 L 1133.257812 414.234375 L 1113.03125 414.234375 L 1102.914062 431.402344 Z M 1113.03125 448.570312 "/>
<path style=" stroke:none;fill-rule:nonzero;fill:rgb(100%,100%,100%);fill-opacity:1;" d="M 994.257812 522.289062 L 970.832031 509.027344 L 970.832031 482.515625 L 994.257812 469.253906 L 1017.683594 482.515625 L 1017.683594 509.027344 Z M 976.734375 505.683594 L 994.25 515.601562 L 1011.765625 505.683594 L 1011.765625 485.859375 L 994.25 475.941406 L 976.734375 485.859375 Z M 976.734375 505.683594 "/>
<path style=" stroke:none;fill-rule:nonzero;fill:rgb(100%,100%,100%);fill-opacity:1;" d="M 879.554688 454.363281 L 852.503906 454.363281 L 838.976562 431.402344 L 852.503906 408.441406 L 879.554688 408.441406 L 893.085938 431.402344 Z M 855.917969 448.570312 L 876.144531 448.570312 L 886.261719 431.402344 L 876.144531 414.234375 L 855.917969 414.234375 L 845.800781 431.402344 Z M 855.917969 448.570312 "/>
<path style=" stroke:none;fill-rule:nonzero;fill:rgb(100%,100%,100%);fill-opacity:1;" d="M 879.554688 302.523438 L 852.503906 302.523438 L 838.976562 279.5625 L 852.503906 256.601562 L 879.554688 256.601562 L 893.085938 279.5625 Z M 855.917969 296.730469 L 876.144531 296.730469 L 886.261719 279.5625 L 876.144531 262.394531 L 855.917969 262.394531 L 845.800781 279.5625 Z M 855.917969 296.730469 "/>
<path style=" stroke:none;fill-rule:nonzero;fill:rgb(100%,100%,100%);fill-opacity:1;" d="M 1532.707031 1381.265625 L 1604.527344 1340.625 L 1607.480469 1345.640625 L 1535.664062 1386.28125 Z M 1532.707031 1381.265625 "/>
<path style=" stroke:none;fill-rule:nonzero;fill:rgb(100%,100%,100%);fill-opacity:1;" d="M 1530.234375 1561.179688 L 1533.191406 1556.160156 L 1607.335938 1598.117188 L 1604.378906 1603.136719 Z M 1530.234375 1561.179688 "/>
<path style=" stroke:none;fill-rule:nonzero;fill:rgb(100%,100%,100%);fill-opacity:1;" d="M 1759.457031 1424.222656 L 1765.367188 1424.222656 L 1765.367188 1516.425781 L 1759.457031 1516.425781 Z M 1759.457031 1424.222656 "/>
<path style=" stroke:none;fill-rule:nonzero;fill:rgb(100%,100%,100%);fill-opacity:1;" d="M 1663.882812 1603.46875 L 1660.925781 1598.453125 L 1734.390625 1556.878906 L 1737.339844 1561.902344 L 1736.257812 1562.503906 Z M 1663.882812 1603.46875 "/>
<path style=" stroke:none;fill-rule:nonzero;fill:rgb(100%,100%,100%);fill-opacity:1;" d="M 1503.535156 1423.96875 L 1509.445312 1423.96875 L 1509.445312 1517.003906 L 1503.535156 1517.003906 Z M 1503.535156 1423.96875 "/>
<path style=" stroke:none;fill-rule:nonzero;fill:rgb(100%,100%,100%);fill-opacity:1;" d="M 1660.203125 1345.132812 L 1663.160156 1340.113281 L 1736.105469 1381.394531 L 1733.148438 1386.410156 Z M 1660.203125 1345.132812 "/>
<path style=" stroke:none;fill-rule:nonzero;fill:rgb(100%,100%,100%);fill-opacity:1;" d="M 1647.390625 1354.132812 L 1620.339844 1354.132812 L 1606.808594 1331.167969 L 1620.339844 1308.207031 L 1647.390625 1308.207031 L 1660.917969 1331.167969 Z M 1623.75 1348.335938 L 1643.976562 1348.335938 L 1654.09375 1331.167969 L 1643.976562 1314.003906 L 1623.75 1314.003906 L 1613.632812 1331.167969 Z M 1623.75 1348.335938 "/>
<path style=" stroke:none;fill-rule:nonzero;fill:rgb(100%,100%,100%);fill-opacity:1;" d="M 1776.277344 1417.570312 L 1749.230469 1417.570312 L 1735.699219 1394.605469 L 1749.230469 1371.644531 L 1776.277344 1371.644531 L 1789.808594 1394.605469 Z M 1752.640625 1411.773438 L 1772.867188 1411.773438 L 1782.984375 1394.605469 L 1772.867188 1377.441406 L 1752.640625 1377.441406 L 1742.523438 1394.605469 Z M 1752.640625 1411.773438 "/>
<path style=" stroke:none;fill-rule:nonzero;fill:rgb(100%,100%,100%);fill-opacity:1;" d="M 1776.277344 1569.410156 L 1749.230469 1569.410156 L 1735.699219 1546.449219 L 1749.230469 1523.484375 L 1776.277344 1523.484375 L 1789.808594 1546.449219 Z M 1752.640625 1563.613281 L 1772.867188 1563.613281 L 1782.984375 1546.449219 L 1772.867188 1529.28125 L 1752.640625 1529.28125 L 1742.523438 1546.449219 Z M 1752.640625 1563.613281 "/>
<path style=" stroke:none;fill-rule:nonzero;fill:rgb(100%,100%,100%);fill-opacity:1;" d="M 1647.390625 1633.78125 L 1620.339844 1633.78125 L 1606.808594 1610.820312 L 1620.339844 1587.859375 L 1647.390625 1587.859375 L 1660.917969 1610.820312 Z M 1623.75 1627.988281 L 1643.976562 1627.988281 L 1654.09375 1610.820312 L 1643.976562 1593.652344 L 1623.75 1593.652344 L 1613.632812 1610.820312 Z M 1623.75 1627.988281 "/>
<path style=" stroke:none;fill-rule:nonzero;fill:rgb(100%,100%,100%);fill-opacity:1;" d="M 1519.167969 1569.410156 L 1492.117188 1569.410156 L 1478.585938 1546.449219 L 1492.117188 1523.484375 L 1519.167969 1523.484375 L 1532.695312 1546.449219 Z M 1495.527344 1563.613281 L 1515.753906 1563.613281 L 1525.871094 1546.449219 L 1515.753906 1529.28125 L 1495.527344 1529.28125 L 1485.410156 1546.449219 Z M 1495.527344 1563.613281 "/>
<path style=" stroke:none;fill-rule:nonzero;fill:rgb(100%,100%,100%);fill-opacity:1;" d="M 1519.167969 1417.570312 L 1492.117188 1417.570312 L 1478.585938 1394.605469 L 1492.117188 1371.644531 L 1519.167969 1371.644531 L 1532.695312 1394.605469 Z M 1495.527344 1411.773438 L 1515.753906 1411.773438 L 1525.871094 1394.605469 L 1515.753906 1377.441406 L 1495.527344 1377.441406 L 1485.410156 1394.605469 Z M 1495.527344 1411.773438 "/>
<path style=" stroke:none;fill-rule:nonzero;fill:rgb(100%,100%,100%);fill-opacity:1;" d="M 253.421875 1381.671875 L 325.242188 1341.03125 L 328.195312 1346.046875 L 256.378906 1386.691406 Z M 253.421875 1381.671875 "/>
<path style=" stroke:none;fill-rule:nonzero;fill:rgb(100%,100%,100%);fill-opacity:1;" d="M 250.921875 1561.519531 L 253.878906 1556.503906 L 328.023438 1598.460938 L 325.066406 1603.480469 Z M 250.921875 1561.519531 "/>
<path style=" stroke:none;fill-rule:nonzero;fill:rgb(100%,100%,100%);fill-opacity:1;" d="M 480.132812 1424.613281 L 486.042969 1424.613281 L 486.042969 1516.816406 L 480.132812 1516.816406 Z M 480.132812 1424.613281 "/>
<path style=" stroke:none;fill-rule:nonzero;fill:rgb(100%,100%,100%);fill-opacity:1;" d="M 384.550781 1603.851562 L 381.59375 1598.835938 L 455.058594 1557.257812 L 458.015625 1562.28125 L 456.933594 1562.894531 Z M 384.550781 1603.851562 "/>
<path style=" stroke:none;fill-rule:nonzero;fill:rgb(100%,100%,100%);fill-opacity:1;" d="M 224.210938 1424.339844 L 230.121094 1424.339844 L 230.121094 1517.378906 L 224.210938 1517.378906 Z M 224.210938 1424.339844 "/>
<path style=" stroke:none;fill-rule:nonzero;fill:rgb(100%,100%,100%);fill-opacity:1;" d="M 380.851562 1345.472656 L 383.808594 1340.453125 L 456.753906 1381.734375 L 453.796875 1386.75 Z M 380.851562 1345.472656 "/>
<path style=" stroke:none;fill-rule:nonzero;fill:rgb(100%,100%,100%);fill-opacity:1;" d="M 368.066406 1354.511719 L 341.015625 1354.511719 L 327.488281 1331.550781 L 341.015625 1308.589844 L 368.066406 1308.589844 L 381.59375 1331.550781 Z M 344.417969 1348.71875 L 364.644531 1348.71875 L 374.761719 1331.550781 L 364.644531 1314.382812 L 344.417969 1314.382812 L 334.300781 1331.550781 Z M 344.417969 1348.71875 "/>
<path style=" stroke:none;fill-rule:nonzero;fill:rgb(100%,100%,100%);fill-opacity:1;" d="M 496.945312 1417.949219 L 469.898438 1417.949219 L 456.367188 1394.988281 L 469.898438 1372.027344 L 496.945312 1372.027344 L 510.476562 1394.988281 Z M 473.308594 1412.15625 L 493.535156 1412.15625 L 503.652344 1394.988281 L 493.535156 1377.820312 L 473.308594 1377.820312 L 463.191406 1394.988281 Z M 473.308594 1412.15625 "/>
<path style=" stroke:none;fill-rule:nonzero;fill:rgb(100%,100%,100%);fill-opacity:1;" d="M 496.945312 1569.789062 L 469.898438 1569.789062 L 456.367188 1546.828125 L 469.898438 1523.867188 L 496.945312 1523.867188 L 510.476562 1546.828125 Z M 473.308594 1563.996094 L 493.535156 1563.996094 L 503.652344 1546.828125 L 493.535156 1529.660156 L 473.308594 1529.660156 L 463.191406 1546.828125 Z M 473.308594 1563.996094 "/>
<path style=" stroke:none;fill-rule:nonzero;fill:rgb(100%,100%,100%);fill-opacity:1;" d="M 368.066406 1634.164062 L 341.015625 1634.164062 L 327.488281 1611.203125 L 341.015625 1588.238281 L 368.066406 1588.238281 L 381.59375 1611.203125 Z M 344.417969 1628.367188 L 364.644531 1628.367188 L 374.761719 1611.203125 L 364.644531 1594.035156 L 344.417969 1594.035156 L 334.300781 1611.203125 Z M 344.417969 1628.367188 "/>
<path style=" stroke:none;fill-rule:nonzero;fill:rgb(100%,100%,100%);fill-opacity:1;" d="M 239.835938 1569.789062 L 212.785156 1569.789062 L 199.253906 1546.828125 L 212.785156 1523.867188 L 239.835938 1523.867188 L 253.363281 1546.828125 Z M 216.195312 1563.996094 L 236.421875 1563.996094 L 246.539062 1546.828125 L 236.421875 1529.660156 L 216.195312 1529.660156 L 206.078125 1546.828125 Z M 216.195312 1563.996094 "/>
<path style=" stroke:none;fill-rule:nonzero;fill:rgb(100%,100%,100%);fill-opacity:1;" d="M 239.835938 1417.949219 L 212.785156 1417.949219 L 199.253906 1394.988281 L 212.785156 1372.027344 L 239.835938 1372.027344 L 253.363281 1394.988281 Z M 216.195312 1412.15625 L 236.421875 1412.15625 L 246.539062 1394.988281 L 236.421875 1377.820312 L 216.195312 1377.820312 L 206.078125 1394.988281 Z M 216.195312 1412.15625 "/>
<path style=" stroke:none;fill-rule:nonzero;fill:rgb(100%,100%,100%);fill-opacity:1;" d="M 892.972656 1698.519531 L 964.792969 1657.878906 L 967.75 1662.894531 L 895.929688 1703.539062 Z M 892.972656 1698.519531 "/>
<path style=" stroke:none;fill-rule:nonzero;fill:rgb(100%,100%,100%);fill-opacity:1;" d="M 890.464844 1878.417969 L 893.421875 1873.398438 L 967.566406 1915.359375 L 964.609375 1920.375 Z M 890.464844 1878.417969 "/>
<path style=" stroke:none;fill-rule:nonzero;fill:rgb(100%,100%,100%);fill-opacity:1;" d="M 1119.691406 1741.480469 L 1125.605469 1741.480469 L 1125.605469 1833.679688 L 1119.691406 1833.679688 Z M 1119.691406 1741.480469 "/>
<path style=" stroke:none;fill-rule:nonzero;fill:rgb(100%,100%,100%);fill-opacity:1;" d="M 1024.121094 1920.726562 L 1021.164062 1915.710938 L 1094.628906 1874.132812 L 1097.574219 1879.15625 L 1096.496094 1879.769531 Z M 1024.121094 1920.726562 "/>
<path style=" stroke:none;fill-rule:nonzero;fill:rgb(100%,100%,100%);fill-opacity:1;" d="M 863.769531 1741.222656 L 869.683594 1741.222656 L 869.683594 1834.261719 L 863.769531 1834.261719 Z M 863.769531 1741.222656 "/>
<path style=" stroke:none;fill-rule:nonzero;fill:rgb(100%,100%,100%);fill-opacity:1;" d="M 1020.414062 1662.375 L 1023.367188 1657.359375 L 1096.3125 1698.636719 L 1093.359375 1703.65625 Z M 1020.414062 1662.375 "/>
<path style=" stroke:none;fill-rule:nonzero;fill:rgb(100%,100%,100%);fill-opacity:1;" d="M 994.097656 1674.9375 L 970.671875 1661.675781 L 970.671875 1635.164062 L 994.097656 1621.902344 L 1017.523438 1635.164062 L 1017.523438 1661.675781 Z M 976.582031 1658.332031 L 994.097656 1668.25 L 1011.613281 1658.332031 L 1011.613281 1638.507812 L 994.097656 1628.59375 L 976.582031 1638.507812 Z M 976.582031 1658.332031 "/>
<path style=" stroke:none;fill-rule:nonzero;fill:rgb(100%,100%,100%);fill-opacity:1;" d="M 1136.515625 1734.824219 L 1109.464844 1734.824219 L 1095.9375 1711.863281 L 1109.464844 1688.902344 L 1136.515625 1688.902344 L 1150.046875 1711.863281 Z M 1112.871094 1729.03125 L 1133.097656 1729.03125 L 1143.214844 1711.863281 L 1133.097656 1694.695312 L 1112.871094 1694.695312 L 1102.753906 1711.863281 Z M 1112.871094 1729.03125 "/>
<path style=" stroke:none;fill-rule:nonzero;fill:rgb(100%,100%,100%);fill-opacity:1;" d="M 1136.515625 1886.664062 L 1109.464844 1886.664062 L 1095.9375 1863.703125 L 1109.464844 1840.742188 L 1136.515625 1840.742188 L 1150.046875 1863.703125 Z M 1112.871094 1880.871094 L 1133.097656 1880.871094 L 1143.214844 1863.703125 L 1133.097656 1846.535156 L 1112.871094 1846.535156 L 1102.753906 1863.703125 Z M 1112.871094 1880.871094 "/>
<path style=" stroke:none;fill-rule:nonzero;fill:rgb(100%,100%,100%);fill-opacity:1;" d="M 994.097656 1954.589844 L 970.671875 1941.328125 L 970.671875 1914.816406 L 994.097656 1901.554688 L 1017.523438 1914.816406 L 1017.523438 1941.328125 Z M 976.582031 1937.984375 L 994.097656 1947.898438 L 1011.613281 1937.984375 L 1011.613281 1918.160156 L 994.097656 1908.242188 L 976.582031 1918.160156 Z M 976.582031 1937.984375 "/>
<path style=" stroke:none;fill-rule:nonzero;fill:rgb(100%,100%,100%);fill-opacity:1;" d="M 879.402344 1886.664062 L 852.351562 1886.664062 L 838.824219 1863.703125 L 852.351562 1840.742188 L 879.402344 1840.742188 L 892.933594 1863.703125 Z M 855.757812 1880.871094 L 875.984375 1880.871094 L 886.101562 1863.703125 L 875.984375 1846.535156 L 855.757812 1846.535156 L 845.640625 1863.703125 Z M 855.757812 1880.871094 "/>
<path style=" stroke:none;fill-rule:nonzero;fill:rgb(100%,100%,100%);fill-opacity:1;" d="M 879.402344 1734.824219 L 852.351562 1734.824219 L 838.824219 1711.863281 L 852.351562 1688.902344 L 879.402344 1688.902344 L 892.933594 1711.863281 Z M 855.757812 1729.03125 L 875.984375 1729.03125 L 886.101562 1711.863281 L 875.984375 1694.695312 L 855.757812 1694.695312 L 845.640625 1711.863281 Z M 855.757812 1729.03125 "/>
</g>
</svg>
