<svg width="188" height="188" viewBox="0 0 188 188" fill="none" xmlns="http://www.w3.org/2000/svg">
<path d="M52.27 135L58.03 122.4H59.344L65.104 135H63.7L58.408 123.174H58.948L53.656 135H52.27ZM54.538 131.634L54.934 130.554H62.26L62.656 131.634H54.538ZM74.1425 135L70.2545 130.32L71.3165 129.69L75.6545 135H74.1425ZM67.2125 135V125.55H68.4905V135H67.2125ZM68.0945 130.788V129.69H71.1365V130.788H68.0945ZM71.4245 130.41L70.2365 130.23L73.9985 125.55H75.3845L71.4245 130.41ZM84.6015 135L80.7135 130.32L81.7755 129.69L86.1135 135H84.6015ZM77.6715 135V125.55H78.9495V135H77.6715ZM78.5535 130.788V129.69H81.5955V130.788H78.5535ZM81.8835 130.41L80.6955 130.23L84.4575 125.55H85.8435L81.8835 130.41ZM93.8227 135V132.912L93.7687 132.57V129.078C93.7687 128.274 93.5407 127.656 93.0847 127.224C92.6407 126.792 91.9747 126.576 91.0867 126.576C90.4747 126.576 89.8927 126.678 89.3407 126.882C88.7887 127.086 88.3207 127.356 87.9367 127.692L87.3607 126.738C87.8407 126.33 88.4167 126.018 89.0887 125.802C89.7607 125.574 90.4687 125.46 91.2127 125.46C92.4367 125.46 93.3787 125.766 94.0387 126.378C94.7107 126.978 95.0467 127.896 95.0467 129.132V135H93.8227ZM90.5647 135.09C89.8567 135.09 89.2387 134.976 88.7107 134.748C88.1947 134.508 87.7987 134.184 87.5227 133.776C87.2467 133.356 87.1087 132.876 87.1087 132.336C87.1087 131.844 87.2227 131.4 87.4507 131.004C87.6907 130.596 88.0747 130.272 88.6027 130.032C89.1427 129.78 89.8627 129.654 90.7627 129.654H94.0207V130.608H90.7987C89.8867 130.608 89.2507 130.77 88.8907 131.094C88.5427 131.418 88.3687 131.82 88.3687 132.3C88.3687 132.84 88.5787 133.272 88.9987 133.596C89.4187 133.92 90.0067 134.082 90.7627 134.082C91.4827 134.082 92.1007 133.92 92.6167 133.596C93.1447 133.26 93.5287 132.78 93.7687 132.156L94.0567 133.038C93.8167 133.662 93.3967 134.16 92.7967 134.532C92.2087 134.904 91.4647 135.09 90.5647 135.09ZM98.6109 138.582C98.1669 138.582 97.7409 138.51 97.3329 138.366C96.9369 138.222 96.5949 138.006 96.3069 137.718L96.9009 136.764C97.1409 136.992 97.3989 137.166 97.6749 137.286C97.9629 137.418 98.2809 137.484 98.6289 137.484C99.0489 137.484 99.4089 137.364 99.7089 137.124C100.021 136.896 100.315 136.488 100.591 135.9L101.203 134.514L101.347 134.316L105.235 125.55H106.495L101.761 136.134C101.497 136.746 101.203 137.232 100.879 137.592C100.567 137.952 100.225 138.204 99.8529 138.348C99.4809 138.504 99.0669 138.582 98.6109 138.582ZM101.131 135.27L96.7749 125.55H98.1069L101.959 134.226L101.131 135.27ZM108.486 135V125.55H109.764V129.726H115.722V125.55H117V135H115.722V130.824H109.764V135H108.486ZM122.432 135V126.324L122.756 126.666H118.85V125.55H127.292V126.666H123.386L123.71 126.324V135H122.432Z" fill="#B5B5B5"/>
<path d="M13.0936 47.2887L94 0.57735L174.906 47.2887V140.711L94 187.423L13.0936 140.711V47.2887Z" stroke="#F5F5F5"/>
<path d="M76.5 93.5L111.5 58.5" stroke="#B8B8B8" stroke-width="1.52727" stroke-linecap="round" stroke-linejoin="round"/>
<path d="M76.5 58.5H111.5V93.5" stroke="#B8B8B8" stroke-width="1.52727" stroke-linecap="round" stroke-linejoin="round"/>
</svg>
