<?xml version="1.0" encoding="utf-8"?>
<!-- Generator: Adobe Illustrator 26.2.1, SVG Export Plug-In . SVG Version: 6.00 Build 0)  -->
<svg version="1.1" id="Шар_1" xmlns="http://www.w3.org/2000/svg" xmlns:xlink="http://www.w3.org/1999/xlink" x="0px" y="0px"
	 viewBox="0 0 1000 1000" style="enable-background:new 0 0 1000 1000;" xml:space="preserve">
<style type="text/css">
	.st0{display:none;}
	.st1{fill:#FFFFFF;}
	.st2{display:inline;}
	.st3{font-family:'SFProDisplay-Heavy';}
	.st4{font-size:106.0391px;}
	.st5{letter-spacing:37;}
	.st6{font-family:'SFProDisplay-Semibold';}
	.st7{font-size:39px;}
	.st8{letter-spacing:7;}
	.st9{fill:none;stroke:#FFFFFF;stroke-width:7;stroke-miterlimit:10;}
</style>
<rect x="-34.24" y="-21.39" class="st0" width="1057.53" height="1057.53"/>
<g>
	<path class="st1" d="M592.85,433.67c-2.32-2.36-4.62-4.27-6.73-5.81c-0.36,1.38-1.35,5.88,0.92,10.7c0.57,1.22,2.8,5.96,8.1,7.64
		c3.05,0.97,5.73,0.48,7.03,0.16C600.21,442.7,597.26,438.15,592.85,433.67z M608.74,434.74c-1.71-5.81-6.54-8.74-7.79-9.48
		c-7.01-4.12-14.37-1.96-15.75-1.53c4.92,2.59,7.96,5.5,9.84,7.69c3.95,4.61,8.66,11.42,8.66,11.42c1.83,2.65,2.52,3.8,3.36,3.67
		C608.9,446.22,610.29,439.99,608.74,434.74z M617.23,411.27c6.51-1.75,9.76-2.63,12.61-4.12c6.56-3.45,7.8-7.09,11.69-6.65
		c2.19,0.24,2.65,1.49,5.74,3.21c4.43,2.46,9.37,3.17,12.61,2.98c6.72-0.41,11.41-5.06,19.72-13.3c3.05-3.03,5.36-5.72,6.88-7.57
		c-5.18,5.16-9.75,8.92-13.07,11.47c-2.89,2.21-4.52,3.25-6.65,4.12c-1.69,0.69-7.17,2.85-13.07,0.92
		c-0.64-0.21-5.34-1.75-5.28-3.67c0.06-1.57,3.24-2.37,8.26-4.36c3.15-1.24,7.33-3.08,12.15-5.73c-6.94,1.99-12.57,3.41-16.51,4.36
		c-3.81,0.91-5.19,1.18-7.57,2.06c-5.81,2.15-8.47,4.59-12.38,6.88c-4.6,2.7-8.34,3.63-15.82,5.5c-11.13,2.79-19.88,2.8-27.97,2.76
		c-0.9-0.01-18.91-0.15-19.04-2.07c-0.08-1.28,7.89-2.83,11.01-3.44c8.45-1.64,11.03-0.91,18.57-2.29
		c7.03-1.29,10.63-1.94,14.22-4.36c6.4-4.3,9.02-11.64,10.09-17.19c-0.69,2.91-3.04,10.35-9.4,12.38c-0.91,0.29-4.91,1.57-8.03-0.69
		c-2.91-2.11-3.49-6.16-2.89-8.96c0.29-1.32,1.36-4.82,8.62-8.7c9.66-5.15,20.02-5.51,27.52-4.81c-5.88-1.84-10.9-2.09-14.21-2.01
		c-3.17,0.08-9.78,0.32-16.9,4.07c-3.71,1.96-7.85,4.14-9.69,8.9c-1.5,3.85-0.67,7.31-0.47,8.07c1.47,5.68,6.27,8.28,7.1,8.71
		c-1.44,0.46-3.66,1.11-6.42,1.69c-5.33,1.12-8.81,1.18-12.99,1.52c-8.48,0.71-8.11,1.63-15.44,2.3c-8.87,0.8-10.52-0.59-17.65,0
		c-9.25,0.76-15.62,3.27-19.5,4.58c-0.45,0.15-0.88,0.3-1.34,0.44c-3.88,1.17-9.08,1.84-34.86,3.3c-1.12,0.06-2.28,0.13-3.48,0.19
		c-5.9,0.33-12.79,0.7-20.85,1.12c0,0-32.65,1.69-32.56,2.98c0,0.05,0.45,0.11,0.69,0.51c0.08,0.15,0.16,0.39,0.11,0.75
		c7.4-0.98,13.42-0.93,19.02,1.09c1.92,0.69,3.6,1.52,5.08,2.4c3.42,2.05,5.75,4.39,7.35,5.99c2.54,2.54,12.47,12.78,12.69,28.77
		c0.16,11.53-4.8,19.91-7.03,23.24c2.29-1.91,5.82-4.99,9.81-9.16c4-4.18,5.78-6.65,11.59-13.5c7.39-8.73,7.5-8.26,10.09-11.58
		c3.51-4.49,7.97-11.3,11.62-21.1c-0.08,4.69-0.77,12-4.28,19.88c-3.61,8.09-8.82,13.37-19.09,23.61
		c-13.48,13.42-15.33,12.36-19.43,19.19c-6.04,10.04-3.38,14.56-9.14,24.16c-1.43,2.37-4.96,7.68-18.69,17.11
		c-17.88,12.29-32.99,22.66-53.5,23.85c-10.79,0.62-10.84-2-29.66-1.84c-8,0.07-17.15,0.04-28.73,2.14
		c-4.91,0.89-11.57,2.39-19.29,5.06c-0.13,0.24-0.26,0.49-0.38,0.74c-0.4,0.77-0.78,1.58-1.12,2.39c-1.09,2.6-1.69,5.18-0.52,6.47
		c1.28,1.41,4.04,0.57,8.6-1.24c1.11-0.44,2.33-0.94,3.66-1.48c3.6-1.46,8.02-3.22,13.33-4.9c10.28-3.25,20.81-6.19,33.32-4.28
		c7.01,1.07,14.24,3.9,14.06,4.89c-0.1,0.6-2.98,0.8-5.42,0.38c-2.11-0.36-3.17-1.07-4.59-1.61c-3.02-1.13-5.7-0.76-8.94-0.3
		c-6.18,0.87-7.33,2.93-15.59,5.81c-2.34,0.81-5.53,1.61-11.93,3.21c-2.62,0.65-4.58,1.12-6.13,1.48c-2.31,0.54-3.69,0.86-4.89,1.26
		c-0.77,0.25-1.46,0.53-2.28,0.93c-0.98,0.48-2.13,1.11-3.39,1.99l5.24,3.03l3.18,1.83c1.01-0.8,2.17-1.72,3.69-2.73
		c0.24-0.16,0.45-0.3,0.69-0.43c0.76-0.43,1.76-0.86,4.62-1.92c2.44-0.91,6.22-2.28,12.34-4.52c9.69-3.55,10.39-3.83,12.39-4.13
		c6.22-0.94,6.89,0.7,14.76,0.44c4.99-0.16,9.18-1.02,17.57-2.74c7.39-1.51,11.32-2.7,11.69-1.83c0.36,0.83-2.77,2.96-4.81,4.36
		c-4.04,2.75-7.54,4.12-8.15,4.36c-3.59,1.38-6.66,2.03-12.95,2.97c-10.27,1.54-18.57,2.3-18.57,2.3
		c-8.96,0.81-10.01,0.56-13.53,1.6c-1.58,0.47-2.65,0.9-3.55,1.34c-1.47,0.72-2.5,1.45-4.61,2.43c-0.83,0.38-1.82,0.8-3.08,1.28
		c-0.79,0.29-1.55,0.56-2.29,0.81c-1.67,0.55-3.22,0.98-4.59,1.35l8.75,5.05c0.16-0.21,0.3-0.39,0.43-0.56
		c0.61-0.78,1.29-1.44,2.06-2c1.2-0.89,2.63-1.57,4.41-2.24c1.41-0.53,3.04-1.06,4.95-1.67c0.38-0.12,0.57-0.18,1.17-0.29
		c1.07-0.2,3.45-0.58,10.56-1.83c6.12-1.08,7.28-1.31,9.86-1.6c4.65-0.52,4.59-0.16,8.03-0.69c4.3-0.66,4.72-1.26,9.63-2.07
		c4.16-0.67,4.19-0.29,6.88-0.91c0.89-0.21,4.46-1.07,8.71-3.44c3.88-2.16,5.23-3.85,9.18-7.11c3.32-2.74,5.88-4.43,11-7.8
		c7.54-4.95,19.98-12.05,21.1-10.54c0.49,0.67-1.64,2.51-6.88,9.17c-7.06,8.96-5.87,9.03-8.94,11.92
		c-5.83,5.48-12.73,7.72-17.2,9.17c-2.81,0.91-1.87,0.37-10.78,2.76c-6.97,1.86-8.36,2.42-12.15,3.21
		c-4.18,0.86-7.22,1.17-11.47,1.6c-11.55,1.17-12.58,0.11-17.19,1.83c-0.97,0.37-1.27,0.54-2.16,1.05c-0.88,0.49-2.32,1.3-5.53,2.92
		h-0.01c-0.52,0.26-1.09,0.54-1.71,0.85c-0.8,0.4-1.53,0.75-2.18,1.07c-1.69,0.82-2.92,1.38-3.85,1.78l7.11,4.1
		c0.84-0.83,1.71-1.65,2.7-2.44c0.89-0.71,1.88-1.4,3.04-2.06c0.09-0.05,0.19-0.11,0.29-0.16c2.16-1.17,4.02-1.74,6.68-2.28
		c1.06-0.23,2.25-0.44,3.64-0.7c2.52-0.46,3.41-0.44,3.67,0c0.35,0.62-0.65,1.77-2.31,3.58c-0.34,0.38-0.73,0.79-1.13,1.24
		c-1.3,1.42-2.26,2.54-2.98,3.42c-0.81,0.98-1.35,1.69-1.76,2.24c-0.86,1.16-1.19,1.66-2.37,2.59c-0.01,0.01-0.02,0.02-0.03,0.02
		l9.23,5.33c0.1-0.7,0.32-1.97,0.79-3.54c0.21-0.72,0.47-1.5,0.8-2.33c0.26-0.65,0.57-1.32,0.91-2c0.68-1.35,1.46-2.56,2.28-3.65
		c3.44-4.55,7.71-6.9,9.41-7.81c2.6-1.4,3.69-1.49,14.68-3.9c13.6-2.99,17.54-4.08,17.88-3.21c0.23,0.57-1.34,1.53-9.17,6.88
		c-6.08,4.15-9.16,6.26-11.47,8.02c-5.59,4.28-5.62,5.1-8.49,7.43c-0.61,0.5-1.34,1.06-2.28,1.74c-1.55,1.12-2.91,2.01-4.09,2.76
		c-0.62,0.4-1.19,0.76-1.72,1.11c-1.18,0.77-2.17,1.47-3,2.26l12.09,6.99c-0.19-2.43-0.28-3.34-0.2-4.11
		c0.03-0.25,0.07-0.49,0.13-0.75c0.05-0.23,0.11-0.45,0.17-0.66c0.69-2.34,2.16-4.07,4.41-6.16c0.56-0.53,1.18-1.08,1.84-1.67
		c6.45-5.73,9.67-8.6,12.15-10.31c8.11-5.63,9.45-4.74,16.28-9.86c3.14-2.36,5.46-4.56,10.09-8.95c7.03-6.66,7.77-8.3,12.61-11.92
		c4.81-3.6,5.52-3.06,8.03-5.73c1.35-1.45,3.66-4.3,6.42-12.16c2.15-6.14,2.48-9.38,3.44-13.07c1.94-7.48,5.42-12.32,12.38-22.01
		c6.58-9.16,13.03-15.73,16.97-19.72c6.17-6.24,7.81-7.04,12.84-12.84c8.39-9.68,10.22-14.82,10.77-16.51
		c1.25-3.8,2.81-8.55,1.61-14.22c-1.02-4.84-3.19-6.28-2.98-10.77c0.22-4.57,2.7-7.88,3.67-9.17c3.22-4.3,7.27-5.97,11.69-7.8
		c2.84-1.17,9.22-3.74,17.89-3.44c2.29,0.08,8.7,0.49,15.59,3.9c5.07,2.5,6.09,4.49,6.42,5.27c1.23,2.87-0.35,4.44,0,8.94
		c0.07,0.94,0.53,5.89,3.67,9.86c2.98,3.78,7.14,5.11,11.23,6.42c5.23,1.68,8.18,1.27,12.62,4.13c1.55,1.01,2.7,2.04,3.44,2.75
		c0.55-2.07,1.16-4.97,1.37-8.48c0.18-2.93,0.41-6.79-0.92-11.47c-0.69-2.42-1.85-6.53-5.5-10.31c-1.27-1.32-4.94-4.78-10.55-5.97
		c-5.15-1.08-6.54,0.9-12.15-0.22c-4.51-0.91-8.95-3.26-8.71-4.36c0.4-1.88,14.33-0.32,15.13-0.23c12.3,1.4,11.94,3.86,20.64,3.9
		c4.44,0.02,7.79-0.61,9.63,1.6c1.63,1.96,0.39,4.01,1.14,7.34c1.52,6.68,9.26,10.22,11.47,11.24c1.58,0.72,4.85,2.02,18.57,2.06
		c6.18,0.02,11.31-0.22,14.91-0.46c-2.88-0.25-6.81-0.63-11.47-1.15c-9.13-1.01-11.12-1.48-13.3-2.29
		c-2.15-0.8-6.42-2.43-10.09-6.42c-3.32-3.62-6.1-9.07-4.81-10.32c0.53-0.52,1.9-0.44,8.25,3.21c4.03,2.32,9.72,5.87,16.28,11.01
		c-3.51-4.39-7.02-7.52-9.7-9.63c-4.33-3.4-7.99-5.3-9.33-5.96c-2.77-1.38-4.81-2.4-7.79-2.98c-3.23-0.64-3.88-0.04-8.49-0.46
		c-0.56-0.05-8.68-0.83-8.71-2.07C607.12,413.46,610.46,413.1,617.23,411.27z"/>
	<path class="st1" d="M619.68,605.16l65.63-37.89c-0.57-2.39-1.72-4.5-3.05-6.31c-0.35-0.49-0.72-0.95-1.09-1.39
		c-2.17-2.55-4.55-4.37-5.78-5.29c-5.24-3.99-11.8-6.11-42.34-5.35c-21.97,0.55-21.9,1.73-29.35,0.61
		c-11.64-1.75-19.21-5.75-33.94-13.53c-13.27-7.02-26.7-14.28-35-26.67c-3.84-5.73-5.63-11.13-6.73-14.53
		c-1.93-5.96-3.06-9.62-1.53-13.45c0.83-2.07,1.93-2.93,2.99-6.24c0.85-2.66,1.64-6.79,0.68-7.21c-1-0.44-3.21,3.47-8.41,10.09
		c-1.48,1.89-3.54,4.27-7.64,9.02c-8.41,9.74-11.54,11.59-17.12,17.88c-6.27,7.06-9.74,13.06-14.48,21.27
		c-3.18,5.49-8.34,14.52-12.88,27.04c-4.09,11.24-3.66,14.26-7.95,20.61c-1.11,1.66-4.34,6.19-14.22,13.63
		c-13.55,10.21-18.92,10.29-26.45,16.2c-2.49,1.96-5.19,4.53-7.83,8.01c-1.52,2-3,4.28-4.4,6.92c-0.11,0.21-0.22,0.42-0.33,0.63
		c-0.52,0.99-1.02,2.04-1.5,3.14l9.65,5.57c0.32-1.04,0.67-2.17,1.08-3.38c0.01-0.05,0.03-0.11,0.05-0.16
		c0.82-2.43,1.85-5.18,3.23-8.23c0.3-0.68,0.63-1.38,0.97-2.1c1.95-4.04,4.16-7.88,7.73-8.43c1.82-0.29,3.96,0.16,4.75,1.16
		c1.9,2.43-1.15,8.16-4.62,14.47c-1.41,2.6-2.9,5.29-4.14,7.89c-0.04,0.09-0.09,0.19-0.13,0.28c-0.47,0.99-0.9,1.96-1.27,2.91
		l6.46,3.74c-0.13-1.18-0.2-2.33-0.16-3.39c0.01-0.23,0.02-0.46,0.04-0.68c0.04-0.49,0.11-0.96,0.21-1.4
		c3.68-4.61,5.99,0.14,8.16,6.23c0.19,0.55,0.39,1.11,0.58,1.67v0.01c0.38,1.1,0.75,2.21,1.13,3.31l7.25,4.18
		c-0.56-1-1.24-2.12-1.99-3.35v-0.01c-0.52-0.86-1.06-1.76-1.61-2.72c-2.2-3.82-4.51-8.41-5.56-13.49c-0.52-2.49-0.73-5.1-0.47-7.79
		c0.74-7.77,5.14-13.79,6.42-15.44c3.47-4.49,7.41-7.07,9.9-8.45c-1.6,3.65-3.52,8.98-4.53,15.65c-0.29,1.88-1.08,7.65-0.17,17.87
		c0.15,1.71,0.29,3.33,0.43,4.85c0.41,4.48,0.79,8.12,1.25,11l1.04,0.6l7.2,4.16l3.98,2.3c2.47-1.38,5.2-3.36,8.18-5.56
		c9.99-7.37,22.75-17.22,37.69-15.21c5.92,0.79,10.57,3.24,13.62,5.24c2.65,4.39,4.66,8.21,6.2,11.49c0.29,0.61,0.56,1.21,0.82,1.78
		c1.09,2.44,1.91,4.55,2.56,6.35l1.14-0.66l82.14-47.43c-1.51,0.6-3.04,0.85-4.45,0.6c-2.03-0.37-3.07-1.65-4.27-3.51
		c-0.32-0.48-0.64-1.01-0.99-1.56c-1.49-2.32-3.51-5.22-7.58-8.23c-0.85-0.63-4.08-2.56-10.54-6.42c-6.71-4-9.21-5.37-8.95-6.19
		c0.12-0.36,0.81-0.7,8.95,0c6.56,0.57,9.84,0.86,12.84,1.61c1.23,0.31,2.64,0.71,11.23,4.35c6.24,2.64,9.44,4.1,11.11,5.03
		c0.89,0.51,1.36,0.87,1.61,1.18c0.2,0.24,0.29,0.44,0.35,0.67C626.35,597.71,623.49,602.27,619.68,605.16z M637.86,555.73
		c4.99,0.06,8.6,0.43,13.3,0.92c7.42,0.77,11.2,1.18,14.45,2.52c2.26,0.93,6.07,2.49,8.11,4.71c0.42,0.45,0.76,0.93,1.01,1.44
		c0,0.01,0,0.01,0,0.01c0.25,0.54,0.39,1.1,0.38,1.7c-0.06,3.77-6.04,7.58-9.5,6.36c-0.9-0.32-1.4-0.91-1.87-1.7
		c-0.27-0.45-0.54-0.97-0.88-1.54c-0.43-0.75-0.99-1.59-1.84-2.5c-0.61-0.65-2.38-2.42-9.4-4.81c-3.09-1.06-6.33-1.94-16.28-3.9
		c-7.63-1.5-10.11-1.85-10.09-2.29C625.3,555.87,633.18,555.67,637.86,555.73z M591.78,559.4c0.38-0.99,3.93-0.22,10.08,0.69
		c12.39,1.82,11.83,0.7,25.92,2.75c7.45,1.08,11.18,1.62,14.36,2.46c6.28,1.65,12.89,4.26,17.45,6.74c0.63,0.34,1.22,0.68,1.77,1.02
		c2.69,1.65,4.28,3.17,4.02,4.23c-0.48,1.95-7.31,2.48-12.61,1.37c-0.27-0.06-0.53-0.11-0.77-0.18c-0.88-0.21-1.62-0.46-2.31-0.73
		c-2.71-1.08-4.41-2.52-8.84-3.9c-2.35-0.73-5.47-1.07-11.62-1.71c-12.52-1.31-14.47-0.74-20.26-2.42c-1.01-0.3-4.98-1.49-9.63-4.13
		C598.5,565.11,591.18,560.91,591.78,559.4z M513.05,520.8c0.87-2.98,2.35-7.52,5.81-12.23c1.99-2.71,4.68-5.54,5.2-5.2
		c0.48,0.34-1.29,3.31-3.37,8.26c-0.94,2.25-2.89,6.87-4.01,11.73c-1.75,7.59-1.07,13.94-0.57,18.23c0.65,5.66,1.92,9.9,2.46,11.59
		c0.76,2.39,1.31,3.57,4.87,11.34c9.58,20.9,5.09,11.47,15.14,25.66c1.04,1.54,4.53,6.71,6.54,11.1c6.4,13.99,2.44,30.16,0.95,30.2
		c-1,0,0.19-7.22-4.55-16.13c-2.47-4.63-3.95-4.84-12.57-15.36c-4.26-5.19-6.38-7.79-8.44-11.06
		C507.42,566.96,506.79,543.69,513.05,520.8z M456.12,610.16c0.58-4.24,1.38-10.01,4.6-16.48c2.1-4.23,2.93-4.11,10.33-14.44
		c4.59-6.41,6.88-9.61,8.06-11.97c3.62-7.2,2.91-10.11,7.17-19.04c1.6-3.37,4.52-9.49,5.98-9.08c1.41,0.39-0.41,6.37-0.31,19.56
		c0.05,5.85,0.45,9.47-1.19,14.78c-0.72,2.32-1.67,4.44-3.19,7.12c-4.1,7.23-7.61,10.11-14.88,18.46
		c-9.9,11.38-12.24,16.19-13.21,18.36c-1.89,4.25-2.85,7.99-3.36,10.48C455.47,623.18,455.17,617.1,456.12,610.16z M468.84,629.59
		c-0.43,3.33,0.14,10.73-4.44,11.62h-0.03c-1.84,0.34-2.79-0.59-3.33-1.92c-0.33-0.82-0.5-1.8-0.63-2.73
		c-1.26-9.3,3.08-18.32,8.59-25.43c2.18-2.82,4.36-5.64,6.54-8.45c0.67-0.88,1.38-1.78,2.36-2.29c0.97-0.52,2.3-0.54,3.08,0.25
		c1.1,1.13,0.48,3.02-0.27,4.42C476.39,613.13,469.99,620.51,468.84,629.59z M490.8,620.27c-1.62,2.43-4.03,4.2-6.39,5.93
		c-2.39,1.74-4.78,3.49-7.17,5.24c-0.47,0.34-1.01,0.7-1.58,0.61c-0.9-0.14-1.25-1.26-1.26-2.17c-0.05-2.73,1.18-5.31,2.37-7.77
		c5.13-10.53,10.26-21.07,15.39-31.61c0.3-0.6,0.75-1.31,1.42-1.27c0.85,0.04,1.13,1.15,1.17,2.01c0.48,6.74,0.37,12.72-0.82,19.35
		C493.33,613.95,492.69,617.42,490.8,620.27z M495.36,624.92c-0.23-0.07-0.48-0.17-0.6-0.38c-0.09-0.17-0.07-0.38-0.04-0.58
		c0.29-1.99,1.04-4.1,2.76-5.16c1.72-1.05,4.51-0.31,4.83,1.69l0.16,0.32C501.71,623.77,498.3,625.74,495.36,624.92z M524.13,631.41
		c-1.28,0.3-2.47-0.69-3.4-1.61c-4.09-4.06-8-8.3-11.7-12.72c-1.98-2.36-3.93-4.83-4.98-7.73c-0.98-2.72-1.11-5.68-1.23-8.58
		c-0.24-6.16-0.49-12.33-0.74-18.5c-0.24-6.13,3.42-2.81,4.59,0.71c1.34,4.03,2.45,8.13,3.34,12.28c0.85,4.04,1.5,8.16,3.05,11.98
		c1.75,4.31,5.59,9.91,8.31,12.79c0.04,0.04,1.32,1.39,2.65,3.46c1.39,2.16,1.55,3.12,1.6,3.41
		C525.87,628.61,525.43,631.09,524.13,631.41z M543.23,640.3c-0.43,0.79-1.01,1.52-1.69,2.13c-0.83,0.78-1.82,1.36-2.86,1.66h-0.01
		c-0.01,0.01-0.01,0.01-0.02,0.01c-1.16,0.34-2.39,0.33-3.56-0.18c-0.33-0.14-0.65-0.33-0.97-0.55c-3.48-2.47-2.29-7.92-2.62-11.69
		c-0.59-6.9-4.48-13.02-8.33-18.78c-1.56-2.33-3.87-5.31-4.17-8.2c-0.16-1.63,0.93-6.14,3.03-3.52c4.84,6.04,10.9,11.05,15.46,17.29
		c3.3,4.51,8.34,14.1,6.35,20.39C543.69,639.36,543.48,639.84,543.23,640.3z M565.03,628.83c-0.18,0.51-0.44,0.98-0.77,1.42
		c-1.57,2.11-4.63,3.24-7.29,3.25c-1.08,0-2.09-0.17-2.91-0.54c-0.5-0.21-0.94-0.51-1.27-0.87c-1.45-1.59-0.14-3.58,0.46-9.86
		c0.18-1.81,0.79-9.16-0.91-16.97c-1.41-6.48-3.73-10.15-2.76-10.78c0.96-0.61,3.99,2.37,5.51,4.13c1.06,1.23,2.64,3.34,5.27,9.63
		c1.47,3.51,2.23,5.32,2.98,8.03c1.22,4.35,2.13,7.6,2.1,10.13C565.43,627.29,565.3,628.1,565.03,628.83z M573.66,624.75
		c-0.27-0.16-0.48-0.33-0.66-0.53c-0.36-0.4-0.59-0.93-0.82-1.72c-0.46-1.64-0.95-4.44-2.65-9.67c-1.71-5.28-2.96-7.79-2.06-8.49
		c0.83-0.65,2.85,0.78,5.5,2.52c7.02,4.62,10.91,6.47,12.95,7.71h0.01c0.76,0.47,1.26,0.85,1.56,1.26c0.25,0.33,0.36,0.68,0.39,1.12
		C588.1,621.44,578.03,627.31,573.66,624.75z M589.71,595.17c4.31,2.37,8,5.8,12.38,8.03c0.63,0.32,1.27,0.63,1.85,0.96
		c0.66,0.37,1.24,0.77,1.61,1.21c0.27,0.32,0.43,0.66,0.44,1.04c0.04,1.82-3.52,3.78-6.65,4.35c-1.1,0.2-2.1,0.23-3.16,0.04
		c-0.77-0.13-1.57-0.37-2.47-0.73c-3.02-1.2-7.15-3.74-14.78-8.02c-2.76-1.55-2.75-1.51-12.38-6.88c-8.66-4.83-10.26-5.74-12.61-7.8
		c-4.3-3.76-6.98-7.72-8.25-9.63c-0.57-0.84-0.02-0.07-5.28-9.4c-1.08-1.92-1.95-3.45-2.75-5.73c-0.8-2.29-2.21-6.32-0.92-7.34
		c1.52-1.19,6.08,2.25,8.26,3.9c4.81,3.63,7.62,7.11,9.4,9.17c4.35,5.05,8.13,8.15,13.3,12.38
		C576.32,587.8,585.4,592.8,589.71,595.17z M633.28,584.39c-2.65-1.86-4.24-1.64-13.76-2.98c-9.4-1.32-7.76-1.52-15.59-2.52
		c-8.62-1.1-8.9-0.64-13.3-1.6c-3.72-0.82-8.34-1.83-13.53-4.82c-1.76-1.02-7.49-4.39-12.15-10.78c-2.55-3.49-2.76-5.11-5.96-8.48
		c-3.44-3.61-6.3-5.02-5.97-5.73c0.41-0.88,5.27,0.15,9.63,2.06c4.02,1.75,5.46,3.3,11.47,7.57c0.33,0.23,5.05,3.57,10.78,7.11
		c6.23,3.85,9.35,5.77,13.3,7.33c3.24,1.29,7.17,1.95,14.9,3.21c11.82,1.94,16.56,2.16,23.85,5.05c1.51,0.6,3.57,1.41,5.18,2.31
		c0.65,0.36,1.23,0.73,1.67,1.11c0.63,0.53,1,1.08,0.94,1.62c-0.16,1.43-3.4,2.64-6.19,2.3c-0.4-0.05-0.77-0.13-1.11-0.24
		c-0.76-0.22-1.4-0.56-1.98-0.94C634.68,585.47,634.01,584.9,633.28,584.39z"/>
	<g>
		<path class="st1" d="M352.36,285.21c-2.73-0.94-4.79-1.46-5.63-1.67C347.65,283.73,349.71,284.2,352.36,285.21z"/>
		<g>
			<path class="st1" d="M497.53,414.95c-0.08-1.16-0.28-2.24-0.66-3.38c-0.49-1.49-1.31-3.08-2.63-5.07
				c-2.04-3.05-5.26-7.02-10.3-13.03c-5.92-7.04-8.05-9.34-10.47-11.77c-2.32-2.32-4.94-4.76-8.03-7.37
				c-8.52-7.19-9.83-6.56-12.93-10.37c-3.89-4.79-7.65-12.92-6.42-27.52c-1.4,2.54-3.98,8.03-4.04,15.44
				c-0.06,7.34,2.38,12.82,3.73,15.38c-4.36-1.64-11.5-4.24-20.47-7.12c-16.56-5.3-22.29-6.06-29.13-11.23
				c-3.75-2.84-9.04-7.93-13.3-17.2c1.41-6.85,1.54-12.1,1.25-13.9c-0.28-1.75-0.78-3.66-0.78-3.66c-0.13-0.48-0.24-0.89-0.36-1.28
				c-2.14-7.2-6.55-11.96-8.74-14.34c-6.65-7.17-15.88-11.25-21.88-13.32c5.3,2,12.98,6.15,18.75,14.54
				c8.2,11.94,6.96,24.32,6.58,27.31c-3.09-4.6-6.23-9.23-9.43-13.89c-3.1-4.52-6.21-9-9.31-13.41c4.88,9.79,9.76,19.59,14.64,29.39
				c-9.67-0.8-17.77-8.34-21.84-17.16c-4.06-8.81-4.78-18.75-5.04-28.45c-0.59,2.53-5.17,23.42,5.59,36.14
				c3.32,3.91,7.59,8.97,14.6,11.36c2.97,1.01,5.75,1.87,9.31,4.08c2.88,1.79,5.37,4.68,5.51,8.07c-2.9,1.26-6.33-0.07-8.72-2.13
				c-2.4-2.05-4.14-4.77-6.39-6.98c-6.86-6.71-17.81-7.8-26.97-4.94c-9.16,2.86-16.89,9.04-24.01,15.48
				c8.38-4.23,17.05-8.32,26.36-9.48c9.32-1.16,19.51,1.05,25.98,7.85c-4.75-0.67-10.58-1.1-17.23-0.75
				c-5.88,0.31-11.05,1.17-15.33,2.15c9.88,0.7,19.77,1.4,29.66,2.1c-2.13,1.89-10.6,9.02-23.45,9.13
				c-14.76,0.13-24.16-9.12-25.94-10.94c1.12,1.57,11.94,15.85,30.2,15.23c15-0.51,24.09-10.7,25.6-12.46
				c16.73,8.34,30.43,14.71,39.75,18.96c16.64,7.57,23.38,10.19,32.71,16.44c12.53,8.39,21.12,17.57,26.35,23.92
				c-16.27-2.16-32.55-4.32-48.83-6.48c-3.38-0.45-6.99-1-9.51-3.3c-4.19-3.83-3.84-8.22-6.04-12.74
				c-6.06-12.5-27.67-13.67-27.7-13.56c0,0.06,6.99,1.09,14.98,6.42c3.34,2.23,10.95,7.3,10.69,13.47c-0.01,0.44-0.18,3.6-2.13,4.57
				c-0.54,0.27-1.9,0.7-4.9-1.02c-6.04-3.48-11.69-11.67-14.19-15.58c3.87,12.92,11.12,17.99,13.9,19.65
				c3.72,2.23,7.41,3.16,13.14,4.59c7.41,1.85,13.71,2.53,18.08,2.8c-40.67,2.07-53.81-4.04-57.73-10.58
				c-1.01-1.69-4.44-8.47-12.02-13.01c-3.64-2.19-7.11-3.18-9.47-3.67c1.67,0.52,8.38,2.82,11.61,9.48c1.05,2.15,1.46,4.2,1.61,5.82
				c-3.8-1.29-7.95-2.54-12.44-3.66c-4.15-1.04-8.09-1.84-11.79-2.47c7.14,3.31,14.28,6.62,21.42,9.93
				c-2.11,3.83-7.17,5.21-11.46,4.35c-4.29-0.85-7.99-3.45-11.55-5.99c-3.56-2.53-8.96-6.52-16-11.39
				c3.45,4.29,6.81,8.06,9.95,11.36c5.36,5.63,7.08,6.73,8.19,7.35c1.45,0.82,8.04,4.53,15.35,2.74c5.05-1.24,5.05-3.79,9.13-4.08
				c3.5-0.25,4.6,1.55,13.19,5.91c4.81,2.45,8.22,4.15,12.53,5.2c3.66,0.89,6.95,1.05,9.55,0.96c-16.61,1.38-32.61,9.29-43.75,21.69
				c8.14-4.79,16.28-9.58,24.43-14.38c-1.04,2.26-6.31,13.09-18.86,17.63c-8.31,3.01-15.63,1.74-18.76,1
				c3.11,1.35,13.88,5.54,25.53,1.36c2.91-1.04,9.43-3.38,13.72-9.97c1.88-2.88,2.73-5.67,3.15-7.55c2.81-1.16,5.78-2.25,8.91-3.24
				c16.26-5.16,31.36-5.9,43.47-5.12c-3.29,0.32-10.25,1.53-15.05,7.06c-0.39,0.45-0.75,0.92-1.08,1.38
				c-3.55,2.06-8.46,5.48-13.07,10.91c-3.79,4.45-6.22,8.87-7.77,12.44c-2.01-2.51-1.89-6.66-1.86-7.85
				c0.19-7.21,5.56-11.94,6.48-12.72c7.03-6,15.97-4.41,17.3-4.16c-5.3-3.13-12.34-2.59-17.53,0.73c-6.4,4.09-8.43,10.66-9.62,15.14
				c-2.25,8.4-0.49,15.58,0.62,19.02c2.38-0.06,13.32-0.59,21.4-9.17c1.46-1.56,6.01-6.52,7.32-14.37c0.55-3.29,0.36-6.09,0.09-7.99
				c0.61-0.69,1.68-1.81,3.21-2.93c10.57-7.76,28.38-4.74,38.74-2.14c2.72,0.69,4.93,1.34,6.35,1.77c0.74,0.22,5.65,1.47,12.16,1.46
				c4.68,0,10.82-0.08,13.23-3.85c0.19-0.3,0.39-0.67,0.55-1.15C497.47,417.98,497.66,416.76,497.53,414.95z M418.27,435.2
				c-0.4,1.32-2.58,8.4-9.31,11.87c-1.9,0.98-5.73,2.95-8.73,1.27c-0.09-0.05-0.17-0.1-0.25-0.16c4.53-8.92,11.01-16.72,18.96-22.81
				C419.32,427.84,419.46,431.33,418.27,435.2z"/>
		</g>
		<path class="st1" d="M412.98,334.58c0.39,0.16,1.32,0.53,2.01,0.12c0.9-0.54,0.86-2.11,0.85-2.75c-0.1-3.71-3.98-7.08-5.42-8.25
			c4.84,1.25,8.65,5.74,9.1,10.72c3.01-1.16,5.52-3.73,6.32-6.85c0.85-3.32-0.9-6.75-2.84-8.69c-4.24-4.22-11.43-3.04-11.44-2.98
			c-0.01,0.08,11.7-1.88,15.92,4.1c2.74,3.88,2.49,11.24-1.84,14.9c-3.04,2.58-6.52,3.24-7.12,3.3c-0.29,0.03-3.06,0.29-5.74-0.82
			c-4.53-1.87-7.58-7.14-8.03-13.36C405.58,325.55,409.77,333.28,412.98,334.58z"/>
		<path d="M402.48,289.21c-0.96-0.41-1.45-0.63-1.45-0.67C401.05,288.51,401.46,288.69,402.48,289.21z"/>
		<path class="st1" d="M672,354.59c-6.87,2.3-14.57,2.91-21.29,0.2c-1-0.4-3.23-1.37-5.24-3.5c-1.39-1.48-3.66-4.54-2.79-5.83
			c0.74-1.09,3.09,0.08,7.57,0.23c4.15,0.15,5.42-0.74,9.4-1.14c2.95-0.31,7.18-0.32,12.49,1.05c-9.29-3.51-15.42-3.32-19.37-2.43
			c0,0-7.18,1.62-10.56-0.75c-0.54-0.38-0.7-0.8-0.74-0.93c-0.43-1.31,1.07-2.92,2.06-4.01c3.11-3.45,7.52-5.69,12.07-6.48
			c6.45-1.11,13.13,0.41,19.07,3.13c4.82,2.2,9.23,5.16,13.54,8.24c-11.84-12.13-26.5-16.57-35.67-13.65
			c-4.58,1.46-10.35,3.31-13.76,8.49c-1.44,2.19-1.95,4.21-4.36,5.73c-3.55,2.26-9.12,2.09-10.29-0.1c-1.6-3,3.1-10.36,8.49-11.45
			c1.4-0.28,1.7,0.09,4.1-0.14c0,0,4.1-0.39,8.48-2.53c5.67-2.75,12.91-9.29,14.91-18.11c0.24-1.04,0.47-4.16,0.92-10.39
			c0.32-4.27,0.34-6.1,0.68-9.79c0.37-4.02,0.77-7.31,1.04-9.44c-3.59,0.85-8.57,2.34-14.11,5.08c-6,2.98-12.15,6.03-16.97,12.39
			c-7.06,9.33-7.63,21-7.7,23.02c-0.17,4.72,0.57,8.12-1.24,13.44c-0.57,1.68-1.92,5.07-5.27,9.17
			c-6.21,7.57-13.89,10.97-28.89,17.42c-10.21,4.39-16.79,6.22-22.48,7.34c-2.94,0.58-5.42,0.93-7.18,1.14
			c1.86-4.92,3.72-10.06,4.75-15.22c1.26-6.33,0.4-11.76-0.23-15.42c-1.95,15.05-7.45,23.8-12.24,29.04
			c-6.93,7.6-11.73,7.16-21.55,17.43c-9.53,9.96-12.02,17.69-15.11,16.86c-3.71-1-3.64-13.05-3.11-19.14
			c0.35-4.07,1.13-13.52,7.21-23.63c3.7-6.15,7.73-9.7,15.79-16.8c10.64-9.37,13.93-9.66,21.81-18.05
			c0.78-0.83,5.67-5.99,10.09-12.84c6.76-10.47,10.08-21.22,11.47-26.37c3.15-1.37,7.47-3.63,11.92-7.34
			c3.05-2.53,6.45-5.35,9.17-10.09c0.8-1.38,1.68-3.16,6.2-19.49c0.51-1.84,0.92-3.36,1.2-4.39h-0.01c-0.16-0.02-0.32-0.04-0.5-0.06
			c-0.2-0.03-0.44-0.05-0.71-0.08c-3.13,3.62-3.53,8.97-4.74,13.69c-1.36,5.3-3.76,9.08-5.47,11.51
			c-5.48,7.79-14.69,13.34-16.6,11.66c-0.82-0.72-0.18-2.64,0.68-5.27c1.62-4.89,4.07-7.89,6.43-11.11
			c1.81-2.47,4.29-6.07,6.99-10.75c-5.25,5.01-8.95,9.38-11.35,12.45c-2.74,3.5-4.13,5.31-5.34,8.01c-1.53,3.41-1.86,6-2.69,5.98
			c-0.97-0.02-1.81-3.61-2.06-6.42c-0.75-8.17,3.02-14.57,3.36-15.13c4.29-7.08,11.01-9.92,13.92-11.09
			c4.55-1.83,9.36-2.85,14.2-3.7c-5.67-0.16-15.95,0.71-24.14,8.14c-1.71,1.55-7.73,7.01-9.18,15.36c-0.62,3.59,0.16,4.49,0.29,11
			c0.04,2.14,0.12,10.77-1.62,18.12c-1.73,7.3-6.04,13.75-11.06,19.33c-7.79,8.67-17.47,15.63-28.17,20.25
			c1.71-5.94,3.42-11.88,5.13-17.83c8.88-6.59,10.85-11.99,10.9-15.79c0.03-2.06-0.51-3.41-1.37-9.62
			c-0.63-4.45-0.96-8.12-1.15-10.55c-2.74,0.44-8.46,1.77-13.53,6.42c-1.7,1.56-9.29,8.57-7.8,18.11c0.96,6.11,5.11,9.94,6.65,11.24
			c-0.29,7.67-2.35,12.93-4.1,16.25c-3.94,7.44-7.75,7.82-12.64,16.31c-0.11,0.18-0.21,0.36-0.3,0.54
			c-0.99,1.76-1.74,3.37-2.34,4.82c-2.08,5.07-2.33,8.12-4.32,8.32c-2.56,0.26-3.78-4.58-10.85-15.33
			c-5.72-8.69-7.13-8.89-9.47-14.4c-1.64-3.86-3.95-9.51-2.5-15.88c0.76-3.35,1.64-2.82,3.21-7.58c1.49-4.48,3.57-10.76,0.89-15.98
			c-0.83-1.62-2.38-3.22-5.5-6.42c-1.78-1.84-3.36-3.26-4.47-4.23c-5.13,0.99-9.64,4.7-11.61,9.53c-1.98,4.84-1.34,10.64,1.62,14.94
			c1.51,2.19,3.55,3.96,5.33,5.93c0.95,1.07,1.37,1.65,1.72,2.16c0.45,0.65,2.14,3.19,3.06,8.32c0.46,2.55,0.9,6.68,0.1,11.88
			c-8.76-7.92-15.56-14.01-19.83-17.81c-5.84-5.21-8.08-7.16-10.55-10.55c-5.6-7.68-7.38-15.85-8.02-21.32
			c0.92-3.27,1.92-8.27,1.52-14.32c-0.24-3.67-0.83-12.75-6.78-20.11c-9.25-11.42-25.33-11.2-25.47-10.74
			c-0.15,0.52,19.79,2.35,25.68,15.13c1.87,4.04,2.31,9.15,2.58,12.2c0.52,6.09-0.09,11.18-0.74,14.63
			c-1.28-4.27-3.46-9.97-7.34-16.05c-3.56-5.6-7.43-9.74-10.55-12.61c2.61,3.47,5.57,8.13,8.03,13.98c1.55,3.7,2.6,7.16,3.33,10.2
			c-1.61-0.26-13.19-2.3-19.84-13.41c-6.61-11.03-3.03-22.14-2.5-23.69c-1.33,2.81-4.3,10.08-2.06,18.42
			c0.29,1.09,1.43,5,5.71,10.32c7.04,8.75,16.15,13.3,22.72,15.67c3.25,6.1,6.59,13.5,4.46,15.34c-1.36,1.17-4.41-0.38-7.46-1.89
			c-13.6-6.75-22.33-10.39-25.59-11.78c2.55,1.28,8.91,4.64,22.42,11.93c-2.19,1.69-6.08,4.13-11.05,4.21
			c-7.19,0.11-12.41-4.77-18.35-10.32c-3.09-2.9-7.32-7.44-11.23-13.99c1.73,4.88,5.79,13.91,14.9,20.64
			c3.71,2.73,9,6.64,16.44,6.43c5.05-0.15,8.93-2.12,11.08-3.45c2.9,0.53,5.81,1.07,8.71,1.6c7.75,11.15,15.41,19.27,21.42,24.91
			c15.92,14.95,24.29,16.35,31.06,29.16c4.44,8.39,5.16,15.92,6.31,28.17c0.69,7.23,0.57,13.31,0.06,18.01
			c-0.22,2.02-0.51,3.78-0.85,5.26c-0.82,3.63-1.88,5.61-2.73,5.67c-0.49,0.03-1.23-0.54-3.06-0.68c-0.95-0.08-1.73,0-2.19,0.07
			c0.08,0.49,1.04,0,0.67,0.32c3.68,0.64,7.38,1.28,11.09,1.7c4.15,0.47,8.31,0.68,12.46,0.32c7.87-0.67,15.86-3.61,21.04-9.58
			c0.37-0.43,0.72-0.86,1.06-1.31c3.19-4.21,5.14-9.29,8.2-13.62c6.06-8.58,15.97-13.55,25.86-17.07
			c9.89-3.52,20.25-5.97,29.42-11.06c5.18-2.88,9.87-6.54,14.8-9.81c2.77-1.84,4.21-2.66,5.24-3.22c4.79-2.61,12.39-6.74,19.4-5.73
			c7.31,1.04,6.51,6.59,14.91,9.63c7.06,2.56,15.46,0.89,23.62-2.07c4.1-1.48,10.63-4.42,17.41-10.36
			C684.66,348.68,678.64,352.37,672,354.59z M628.91,307.37c2.6-6.05,7.46-10.91,12.95-14.55c5.48-3.64,11.61-6.18,17.71-8.67
			c0.36,7.95,0.48,16.03-1.57,23.71s-6.56,15.03-13.52,18.87c-3.13,1.73-7.28,3.14-10.89,2.74c0.46-4.45,4.66-10.21,6.65-14.34
			c2.39-4.96,4.79-9.92,7.18-14.89c-7.71,7.29-13.82,16.26-17.76,26.12C626.22,320.75,626.3,313.41,628.91,307.37z M525.69,295.18
			c2.53-6.07,8.99-10.26,15.55-10.1c0.01,0.76,0.03,1.86,0.07,3.18c0.07,2.47,0.12,3.96,0.28,5.9c0.19,2.3,0.39,3.37,0.31,5.49
			c-0.01,0.32-0.04,0.89-0.11,1.56c-0.5,4.68-2.05,7.09-2.98,8.25c-0.55,0.69-2.26,2.84-3.72,2.44c-0.29-0.08-0.65-0.28-1.01-0.82
			c-1.46-2.17-0.42-5.87,0.21-8.37c0.97-3.81,2.31-9.87,1.89-10.01c-0.38-0.14-2.74,4.64-4.48,10.34c-1.29,4.22-1.9,7.83-2.21,10.29
			C524.75,308.78,523.17,301.24,525.69,295.18z M471.7,294.17c1.36,6.92,2.34,13.93,2.91,20.97c-3.8-2.59-7.13-6.03-8.89-10.28
			c-2.19-5.28-1.71-14.81,4.78-17.13c5.29-1.88,11.97,7.66,12.68,12.11c0.76,4.79-2.36,9.24-5.31,13.08
			C477.25,306.23,476.38,298.99,471.7,294.17z"/>
		<path class="st1" d="M544.08,244.8c-4.59,0.83-6.89,1.24-8.71,1.84c-1.83,0.59-9.75,3.2-15.14,10.77
			c-6.45,9.08-4.98,19.25-4.58,21.56c-3.18,2.46-6.35,4.92-9.53,7.38c0.2-5.36,0.39-10.73,0.59-16.1
			c1.43-1.02,14.93-10.98,14.85-26.53c-0.02-2.26-0.06-10.57-5.19-17.12c-1.14-1.46-2.43-2.7-4.56-5.13
			c-1.45-1.65-1.73-2.14-2.58-3.04c-1.29-1.37-3.04-2.93-5.41-4.41c-1.96,1.44-4.58,3.62-7.2,6.7c-1.98,2.34-5.68,6.95-7.67,13.47
			c-3.42,11.2,1.51,21.68,2.98,24.79c2.75,5.85,6.36,9.85,8.81,12.19c0.27,4.72,0.54,9.44,0.81,14.16
			c-2.71-2.05-5.43-4.09-8.14-6.13c0.14-3.22,0.01-10.89-4.8-18.49c-1.35-2.11-4.45-6.88-10.64-10.13
			c-4.51-2.37-8.72-2.9-11.16-3.03c1.93,0.37,12.24,2.52,18.8,12.38c5.63,8.47,4.87,17.15,4.59,19.5
			c-2.34-3.76-6.02-8.76-11.54-13.6c-4.87-4.28-9.63-7.08-13.33-8.9c7.29,7.57,14.59,15.15,21.88,22.72
			c-9.78,0.78-15.66-2.06-18.57-3.89c-5.82-3.68-9.46-9.87-16.74-22.25c-1.89-3.22-3.38-5.94-4.37-7.81
			c0.87,4.87,3.26,14.32,10.79,23.18c3.06,3.6,9.61,11.29,20.87,13.98c4.95,1.19,9.25,1.03,12.15,0.69
			c4.23,3.23,9.25,8.25,9.75,14.89c0.16,2.02-0.16,3.48-0.41,4.71c-2.56,12.86-1.59,25.25-1.33,28.55c0.36,4.47,1.32,12,5.29,19.5
			c0.74,1.38,1.95,3.63,3.32,5.13c0.92,1,1.91,1.67,2.87,1.52c0.87-0.14,1.66-0.92,1.91-1.78c0.44-1.47-0.82-2.85-2.44-4.56
			c-0.86-0.91-1.82-1.91-2.68-3.07c-2.69-3.62-3.2-7.16-4.13-13.52c-0.27-1.9-0.51-4.33,0-14.91c0.53-10.83,1.22-17.18,2.99-24.08
			c0.81-3.15,1.85-6.46,4.7-9.44c2.12-2.22,4.47-3.42,6.07-4.08c2.19,0.07,5.33,0,9.02-0.7c3.27-0.63,14.99-2.86,22.57-12.66
			c3.75-4.85,5.16-9.85,6.71-15.31c1.24-4.4,1.79-8.23,2.06-11C554.4,243.14,549.73,243.79,544.08,244.8z M504.83,265.43
			c-1.51-0.6-0.17-4.89-0.14-16.93c0.03-7.81-0.52-14.2-0.98-18.4c-0.34,3.1-0.77,7.9-0.9,13.78c-0.29,13.11,1.18,20.28-1.15,21.15
			c-1.94,0.73-5.11-3.39-6.82-5.6c-1.7-2.22-8.03-10.43-6.25-20.59c0.66-3.75,2.5-6.7,6.19-12.61c3.24-5.18,6.4-9.12,8.66-11.72
			c2.02,2.05,4.73,5.11,7.39,9.2c2.96,4.53,6.68,10.24,7.34,16.73C519.53,253.74,507.72,266.58,504.83,265.43z M554.4,250.76
			c-1.16,5.74-3.46,9.77-4.36,11.24c-2.88,4.71-6.15,7.44-8.94,9.77c-2.47,2.06-4.48,3.74-7.57,5.13
			c-5.74,2.6-12.98,3.23-13.75,1.38c-0.42-1,2-3.2,6.87-7.57c4.52-4.05,6.73-5.54,10.55-9.17c2.25-2.14,3.97-3.98,5.02-5.14
			c-1.49,0.82-3.63,2.01-6.16,3.53c-5.3,3.18-7.94,4.76-10.78,7.11c-5.46,4.53-6.77,7.81-7.8,7.34c-1.44-0.65-0.7-8.01,2.98-13.99
			c4.59-7.43,12.29-10.4,14.45-11.23c2.46-0.95,5.62-1.63,11.92-2.98c3.41-0.74,6.26-1.26,8.26-1.61
			C555.05,246.18,554.89,248.31,554.4,250.76z"/>
		<circle class="st1" cx="375.32" cy="273.68" r="3.52"/>
		<circle class="st1" cx="470.64" cy="223.41" r="2.52"/>
		<circle class="st1" cx="538.48" cy="224.64" r="2.53"/>
		<circle class="st1" cx="629.35" cy="276.02" r="2.34"/>
	</g>
	<g class="st0">
		<g class="st2">
			<path class="st1" d="M502.07,161.28l-227.24,131.2v262.39l57.13,32.99c-0.15-0.17-0.3-0.33-0.44-0.49
				c-1.1-1.2-1.65-1.81-1.6-2.29c0.12-1.46,2.81-1.96,7.1-3.11l8.75,5.05c-0.98,1.32-2.55,3.37-5.24,4.32
				c-0.51,0.17-0.99,0.34-1.67,0.39c-0.06,0-0.12,0.01-0.18,0l3.11,1.8c1.26-0.36,4.14,0.38,8.99-0.88
				c0.64-0.17,1.36-0.38,2.91-1.05l7.11,4.1l-0.85,0.85c-2.41,2.42-3.41,4-4.2,5.04l5.64,3.26c1.73-0.64,5-0.66,8.85-3.7l9.23,5.33
				c-0.01,0.06-0.02,0.11-0.03,0.16c-0.61,4.28,0.12,7.05,0.39,8.86l2.75,1.58c0.25-1.79,0.92-3.19,1.22-3.79
				c0.61-1.27,1.33-2.22,2.2-3.05l12.09,6.99c0.05,0.58,0.1,1.25,0.16,2.02c0.25,3.37,0.37,5.61,0.4,7.11l5.55,3.2
				c0.85-2.62,1.77-5.02,2.76-7.21l9.65,5.57c-1.01,3.26-1.68,5.72-2.55,7.34l8.85,5.11c-0.49-2.2,0.15-4.99,1.35-8.04l6.46,3.74
				c0.4,3.47,1.37,7.21,1.77,9.83l69.58,40.17l69.09-39.89c-0.96,0.21-2.03,0.4-3.23,0.58c-33.78,15.43-30.37,22.72-33.9,11.85
				c-0.31-0.96-0.68-2.07-1.14-3.34l1.14-0.66l82.14-47.43c0.01,0,0.03-0.01,0.04-0.02c1.19-0.47,2.37-1.17,3.47-2l65.63-37.89
				c0.17,0.71,0.29,1.44,0.35,2.19c0.04,0.48,0.06,1.01,0.01,1.6c-0.2,2.94-1.89,7.45-9.81,14.67l53.45-30.86V292.48L502.07,161.28z
				 M332.22,579.2c-0.8,0.39-1.68,0.68-2.76,0.84c-3.62,0.54-6.83-0.72-8.95-1.84c1.19-1.46,2.39-2.69,3.54-3.72
				c1.02-0.92,2-1.68,2.93-2.31l5.24,3.03l3.18,1.83C334.28,577.92,333.32,578.66,332.22,579.2z M448.99,650.89
				c-0.77,0.74-2.23,0.41-2.84,0.22c-2.23-0.69-3.89-4.79-5.47-9.29l7.25,4.18C449.24,648.36,449.87,650.04,448.99,650.89z
				 M461.1,652.47c-0.43,0.17-0.85,0.3-1.26,0.41c-1.76,0.47-3.35,0.4-4.75-0.42c-1.06-0.62-1.83-1.84-2.45-3.74
				c-0.2-0.62-0.39-1.32-0.56-2.1c-0.17-0.76-0.33-1.59-0.48-2.5l1.04,0.6l7.2,4.16l3.98,2.3
				C462.87,651.7,461.97,652.14,461.1,652.47z M681.17,559.57l-7.45,4.31l-10.86,6.27l-3.27,1.89l-9.9,5.71l-7.56,4.37l-6.67,3.85
				l-11.94,6.89l-17.06,9.85l-2.52,1.45l-10.23,5.91l-7.78,4.5h-0.01l-13.74,7.93l-6.74,3.9l-11.38,6.56l-10.22,5.9l-8.75,5.06
				l-5.58,3.22l-27.44,15.84L472,645.62l-7.63-4.41l-3.33-1.92l-10.69-6.17l-11.58-6.69l-8.97-5.18l-8.83-5.1l-7.78-4.49
				l-10.59-6.11l-5.51-3.18l-12.84-7.41l-5.74-3.32l-5-2.88l-6.54-3.78l-8.18-4.72l-7.2-4.16l-7.19-4.15l-6.86-3.96l-8.11-4.68
				l-10.62-6.14l-23.98-13.84v-239.3l196.26-113.31l10.98-6.34l10.5,6.06l93.7,54.1h0.01l103.03,59.49v239.3L681.17,559.57z
				 M584.67,637.82c-0.58,0.53-1.12,1.04-1.63,1.5l5.45-3.14C587.23,636.72,585.96,637.27,584.67,637.82z"/>
		</g>
	</g>
	<path class="st1" d="M594.16,312.51c-3.91-0.29-7.98,0.25-11.36,2.24c-3.38,1.99-5.95,5.58-6.06,9.5
		c-0.08,2.79,1.08,5.54,2.92,7.64c1.84,2.1,4.33,3.57,6.97,4.46c2.18,0.74,4.54,1.11,6.81,0.67c3.01-0.59,5.63-2.6,7.32-5.15
		c1.69-2.55,2.51-5.61,2.74-8.67c-1.36,4.35-3.55,6.88-4.97,8.21c-0.93,0.87-3.55,3.34-4.89,2.6c-1.21-0.67-0.82-3.68-0.31-5.35
		c0.62-2,1.82-3.32,2.55-4.01c-0.64,0.25-2.95,1.23-4.37,3.82c-1.31,2.4-1.04,4.68-0.93,5.39c-1.17,0.03-3.07-0.06-5.2-0.92
		c-1.29-0.52-3.8-1.53-5.35-4.13c-1.52-2.55-1.64-5.82-0.5-8.37c1.71-3.82,5.8-5.06,9.06-6c6.45-1.87,12.37-0.76,16.18,0.43
		C602.25,313.1,597.17,312.74,594.16,312.51z"/>
	<path class="st1" d="M621.29,279.74c-0.84,1.46-2.05,3.67-3.36,6.42c-1.29,2.71-1.82,4.15-2.29,5.2
		c-3.21,7.14-10.42,11.22-11.84,12.02c-3.18,1.8-7.13,4.1-12.01,3.73c-3.55-0.27-6.57-1.38-6.57-1.38
		c-2.08-0.76-2.96-1.42-4.89-1.83c-2.24-0.48-4.19-0.26-5.5,0c0.98-0.6,2.32-1.6,3.36-3.21c1.81-2.79,1.01-4.77,1.83-7.49
		c1.47-4.87,6.72-7.41,10.7-9.32c3.85-1.86,7.41-2.49,9.78-2.9c2.17-0.38,3.98-0.53,6.73-0.76c3.46-0.29,6.35-0.41,8.41-0.46
		c-1.33,0.27-3.34,0.67-5.81,1.07c-2.56,0.41-3.74,0.53-5.35,0.76c-3.38,0.49-6.38,0.94-9.78,2.14c-5.43,1.92-8.49,4.59-9.32,5.35
		c-1.75,1.59-2.71,2.94-3.36,4.28c-0.74,1.51-1.98,4.81-0.92,5.66c0.68,0.54,1.84-0.31,7.18-3.06c0.39-0.2,3.52-1.8,7.18-3.52
		c2.95-1.38,4.49-2.01,5.2-2.29c2.02-0.81,3.76-1.41,5.04-1.83c-3.01,2.07-5.58,3.51-7.34,4.43c-2.57,1.34-5.62,2.73-9.78,5.2
		c-3.83,2.27-4.64,3.1-4.59,3.97c0.09,1.59,2.99,2.75,4.74,3.21c7.95,2.09,16.23-4.58,19.03-6.82c2.62-2.1,4.08-3.93,4.52-4.49
		c1.84-2.36,2.36-3.9,3.97-6.73C617.26,285.29,618.87,282.71,621.29,279.74z"/>
</g>

<line class="st9" x1="453.65" y1="203.32" x2="331.73" y2="273.72"/>
<polyline class="st9" points="327.55,576.5 334.88,580.73 341.67,584.66 345.67,586.96 352.94,591.16 359.53,594.97 365.45,598.38 
	373.3,602.91 380.97,607.35 386.41,610.48 396.46,616.29 403.84,620.55 411.87,625.18 418.23,628.85 423.6,631.96 431.89,636.74 
	437.92,640.22 441.83,642.48 447.82,645.94 453.43,649.18 "/>
<line class="st9" x1="719.14" y1="503.35" x2="719.14" y2="343.65"/>
<polyline class="st9" points="549.35,649.77 672.23,578.82 674.07,577.76 "/>
<line class="st9" x1="284.66" y1="504.35" x2="284.66" y2="343.19"/>
<polyline class="st9" points="548.16,202.17 618.98,243.07 619.02,243.09 672.01,273.67 "/>
<polygon class="st9" points="520.97,147.7 480.84,147.7 460.77,182.46 480.84,217.22 520.97,217.22 541.04,182.46 "/>
<polygon class="st9" points="739.78,257.58 699.65,257.58 679.58,292.34 699.65,327.1 739.78,327.1 759.85,292.34 "/>
<polygon class="st9" points="739.78,520.58 699.65,520.58 679.58,555.34 699.65,590.1 739.78,590.1 759.85,555.34 "/>
<polygon class="st9" points="520.97,632.08 480.84,632.08 460.77,666.84 480.84,701.6 520.97,701.6 541.04,666.84 "/>
<polygon class="st9" points="303.28,520.58 263.15,520.58 243.08,555.34 263.15,590.1 303.28,590.1 323.35,555.34 "/>
<polygon class="st9" points="303.28,257.58 263.15,257.58 243.08,292.34 263.15,327.1 303.28,327.1 323.35,292.34 "/>
</svg>
