<svg width="830" height="309" viewBox="0 0 830 309" fill="none" xmlns="http://www.w3.org/2000/svg">
<mask id="mask0_149_1583" style="mask-type:alpha" maskUnits="userSpaceOnUse" x="17" y="67" width="813" height="178">
<path d="M63.7985 136.391H146.078V173.86H63.7985V136.391ZM67.3429 206.265H160.003V245H17.7218V67.7818H156.712V106.517H67.3429V206.265ZM231.147 245V170.062L242.793 200.189L163.551 67.7818H216.463L273.679 163.733H243.046L300.515 67.7818H349.124L270.135 200.189L281.275 170.062V245H231.147ZM398.749 245L341.279 67.7818H392.926L441.281 221.202H415.205L466.092 67.7818H512.168L560.271 221.202H535.207L585.081 67.7818H632.93L575.461 245H521.789L480.776 114.618H495.206L452.421 245H398.749ZM623.444 245L701.673 67.7818H751.041L829.523 245H777.371L716.104 92.3392H735.851L674.584 245H623.444ZM666.23 210.569L679.141 173.606H765.725L778.637 210.569H666.23Z" fill="#F5F5F5"/>
</mask>
<g mask="url(#mask0_149_1583)">
<path d="M719.364 186.343L738.243 175.443L757.123 186.343L757.123 208.143L738.243 219.043L719.364 208.143L719.364 186.343Z" fill="white" stroke="white" stroke-width="0.767005"/>
<path d="M17.3635 186.343L36.2431 175.443L55.1228 186.343L55.1228 208.143L36.2431 219.043L17.3635 208.143L17.3635 186.343Z" fill="white" stroke="white" stroke-width="0.767005"/>
<path d="M369.364 186.343L388.243 175.443L407.123 186.343L407.123 208.143L388.243 219.043L369.364 208.143L369.364 186.343Z" fill="white" stroke="white" stroke-width="0.767005"/>
<path d="M741.364 80.343L760.243 69.4428L779.123 80.343L779.123 102.143L760.243 113.043L741.364 102.143L741.364 80.343Z" fill="white" stroke="white" stroke-width="0.767005"/>
<path d="M39.3635 80.343L58.2431 69.4428L77.1228 80.343L77.1228 102.143L58.2431 113.043L39.3635 102.143L39.3635 80.343Z" fill="white" stroke="white" stroke-width="0.767005"/>
<path d="M391.364 80.343L410.243 69.4428L429.123 80.343L429.123 102.143L410.243 113.043L391.364 102.143L391.364 80.343Z" fill="white" stroke="white" stroke-width="0.767005"/>
<path d="M763.364 186.343L782.243 175.443L801.123 186.343L801.123 208.143L782.243 219.043L763.364 208.143L763.364 186.343Z" fill="white" stroke="white" stroke-width="0.767005"/>
<path d="M61.3635 186.343L80.2431 175.443L99.1228 186.343L99.1228 208.143L80.2431 219.043L61.3635 208.143L61.3635 186.343Z" fill="white" stroke="white" stroke-width="0.767005"/>
<path d="M413.364 186.343L432.243 175.443L451.123 186.343L451.123 208.143L432.243 219.043L413.364 208.143L413.364 186.343Z" fill="white" stroke="white" stroke-width="0.767005"/>
<path d="M785.364 80.343L804.243 69.4428L823.123 80.343L823.123 102.143L804.243 113.043L785.364 102.143L785.364 80.343Z" fill="white" stroke="white" stroke-width="0.767005"/>
<path d="M83.3635 80.343L102.243 69.4428L121.123 80.343L121.123 102.143L102.243 113.043L83.3635 102.143L83.3635 80.343Z" fill="white" stroke="white" stroke-width="0.767005"/>
<path d="M435.364 80.343L454.243 69.4428L473.123 80.343L473.123 102.143L454.243 113.043L435.364 102.143L435.364 80.343Z" fill="white" stroke="white" stroke-width="0.767005"/>
<path d="M807.364 186.343L826.243 175.443L845.123 186.343L845.123 208.143L826.243 219.043L807.364 208.143L807.364 186.343Z" fill="white" stroke="white" stroke-width="0.767005"/>
<path d="M105.364 186.343L124.243 175.443L143.123 186.343L143.123 208.143L124.243 219.043L105.364 208.143L105.364 186.343Z" fill="white" stroke="white" stroke-width="0.767005"/>
<path d="M457.364 186.343L476.243 175.443L495.123 186.343L495.123 208.143L476.243 219.043L457.364 208.143L457.364 186.343Z" fill="white" stroke="white" stroke-width="0.767005"/>
<path d="M829.364 80.343L848.243 69.4428L867.123 80.343L867.123 102.143L848.243 113.043L829.364 102.143L829.364 80.343Z" fill="white" stroke="white" stroke-width="0.767005"/>
<path d="M127.364 80.343L146.243 69.4428L165.123 80.343L165.123 102.143L146.243 113.043L127.364 102.143L127.364 80.343Z" fill="white" stroke="white" stroke-width="0.767005"/>
<path d="M479.364 80.343L498.243 69.4428L517.123 80.343L517.123 102.143L498.243 113.043L479.364 102.143L479.364 80.343Z" fill="white" stroke="white" stroke-width="0.767005"/>
<path d="M149.364 186.343L168.243 175.443L187.123 186.343L187.123 208.143L168.243 219.043L149.364 208.143L149.364 186.343Z" fill="white" stroke="white" stroke-width="0.767005"/>
<path d="M501.364 186.343L520.243 175.443L539.123 186.343L539.123 208.143L520.243 219.043L501.364 208.143L501.364 186.343Z" fill="white" stroke="white" stroke-width="0.767005"/>
<path d="M171.364 80.343L190.243 69.4428L209.123 80.343L209.123 102.143L190.243 113.043L171.364 102.143L171.364 80.343Z" fill="white" stroke="white" stroke-width="0.767005"/>
<path d="M523.364 80.343L542.243 69.4428L561.123 80.343L561.123 102.143L542.243 113.043L523.364 102.143L523.364 80.343Z" fill="white" stroke="white" stroke-width="0.767005"/>
<path d="M193.364 186.343L212.243 175.443L231.123 186.343L231.123 208.143L212.243 219.043L193.364 208.143L193.364 186.343Z" fill="white" stroke="white" stroke-width="0.767005"/>
<path d="M545.364 186.343L564.243 175.443L583.123 186.343L583.123 208.143L564.243 219.043L545.364 208.143L545.364 186.343Z" fill="white" stroke="white" stroke-width="0.767005"/>
<path d="M215.364 80.343L234.243 69.4428L253.123 80.343L253.123 102.143L234.243 113.043L215.364 102.143L215.364 80.343Z" fill="white" stroke="white" stroke-width="0.767005"/>
<path d="M567.364 80.343L586.243 69.4428L605.123 80.343L605.123 102.143L586.243 113.043L567.364 102.143L567.364 80.343Z" fill="white" stroke="white" stroke-width="0.767005"/>
<path d="M237.364 186.343L256.243 175.443L275.123 186.343L275.123 208.143L256.243 219.043L237.364 208.143L237.364 186.343Z" fill="white" stroke="white" stroke-width="0.767005"/>
<path d="M589.364 186.343L608.243 175.443L627.123 186.343L627.123 208.143L608.243 219.043L589.364 208.143L589.364 186.343Z" fill="white" stroke="white" stroke-width="0.767005"/>
<path d="M259.364 80.343L278.243 69.4428L297.123 80.343L297.123 102.143L278.243 113.043L259.364 102.143L259.364 80.343Z" fill="white" stroke="white" stroke-width="0.767005"/>
<path d="M611.364 80.343L630.243 69.4428L649.123 80.343L649.123 102.143L630.243 113.043L611.364 102.143L611.364 80.343Z" fill="white" stroke="white" stroke-width="0.767005"/>
<path d="M281.364 186.343L300.243 175.443L319.123 186.343L319.123 208.143L300.243 219.043L281.364 208.143L281.364 186.343Z" fill="white" stroke="white" stroke-width="0.767005"/>
<path d="M633.364 186.343L652.243 175.443L671.123 186.343L671.123 208.143L652.243 219.043L633.364 208.143L633.364 186.343Z" fill="white" stroke="white" stroke-width="0.767005"/>
<path d="M303.364 80.343L322.243 69.4428L341.123 80.343L341.123 102.143L322.243 113.043L303.364 102.143L303.364 80.343Z" fill="white" stroke="white" stroke-width="0.767005"/>
<path d="M655.364 80.343L674.243 69.4428L693.123 80.343L693.123 102.143L674.243 113.043L655.364 102.143L655.364 80.343Z" fill="white" stroke="white" stroke-width="0.767005"/>
<path d="M325.364 186.343L344.243 175.443L363.123 186.343L363.123 208.143L344.243 219.043L325.364 208.143L325.364 186.343Z" fill="white" stroke="white" stroke-width="0.767005"/>
<path d="M677.364 186.343L696.243 175.443L715.123 186.343L715.123 208.143L696.243 219.043L677.364 208.143L677.364 186.343Z" fill="white" stroke="white" stroke-width="0.767005"/>
<path d="M347.364 80.343L366.243 69.4428L385.123 80.343L385.123 102.143L366.243 113.043L347.364 102.143L347.364 80.343Z" fill="white" stroke="white" stroke-width="0.767005"/>
<path d="M699.364 80.343L718.243 69.4428L737.123 80.343L737.123 102.143L718.243 113.043L699.364 102.143L699.364 80.343Z" fill="white" stroke="white" stroke-width="0.767005"/>
<path d="M-2.63648 80.343L16.2431 69.4428L35.1228 80.343L35.1228 102.143L16.2431 113.043L-2.63648 102.143L-2.63648 80.343Z" fill="white" stroke="white" stroke-width="0.767005"/>
<path d="M719.364 44.343L738.243 33.4428L757.123 44.343L757.123 66.1433L738.243 77.0435L719.364 66.1433L719.364 44.343Z" fill="white" stroke="white" stroke-width="0.767005"/>
<path d="M17.3635 44.343L36.2431 33.4428L55.1228 44.343L55.1228 66.1433L36.2431 77.0435L17.3635 66.1433L17.3635 44.343Z" fill="white" stroke="white" stroke-width="0.767005"/>
<path d="M369.364 44.343L388.243 33.4428L407.123 44.343L407.123 66.1433L388.243 77.0435L369.364 66.1433L369.364 44.343Z" fill="white" stroke="white" stroke-width="0.767005"/>
<path d="M741.364 150.343L760.243 139.443L779.123 150.343L779.123 172.143L760.243 183.043L741.364 172.143L741.364 150.343Z" fill="white" stroke="white" stroke-width="0.767005"/>
<path d="M39.3635 150.343L58.2431 139.443L77.1228 150.343L77.1228 172.143L58.2431 183.043L39.3635 172.143L39.3635 150.343Z" fill="white" stroke="white" stroke-width="0.767005"/>
<path d="M391.364 150.343L410.243 139.443L429.123 150.343L429.123 172.143L410.243 183.043L391.364 172.143L391.364 150.343Z" fill="white" stroke="white" stroke-width="0.767005"/>
<path d="M763.364 44.343L782.243 33.4428L801.123 44.343L801.123 66.1433L782.243 77.0435L763.364 66.1433L763.364 44.343Z" fill="white" stroke="white" stroke-width="0.767005"/>
<path d="M61.3635 44.343L80.2431 33.4428L99.1228 44.343L99.1228 66.1433L80.2431 77.0435L61.3635 66.1433L61.3635 44.343Z" fill="white" stroke="white" stroke-width="0.767005"/>
<path d="M413.364 44.343L432.243 33.4428L451.123 44.343L451.123 66.1433L432.243 77.0435L413.364 66.1433L413.364 44.343Z" fill="white" stroke="white" stroke-width="0.767005"/>
<path d="M785.364 150.343L804.243 139.443L823.123 150.343L823.123 172.143L804.243 183.043L785.364 172.143L785.364 150.343Z" fill="white" stroke="white" stroke-width="0.767005"/>
<path d="M83.3635 150.343L102.243 139.443L121.123 150.343L121.123 172.143L102.243 183.043L83.3635 172.143L83.3635 150.343Z" fill="white" stroke="white" stroke-width="0.767005"/>
<path d="M435.364 150.343L454.243 139.443L473.123 150.343L473.123 172.143L454.243 183.043L435.364 172.143L435.364 150.343Z" fill="white" stroke="white" stroke-width="0.767005"/>
<path d="M807.364 44.343L826.243 33.4428L845.123 44.343L845.123 66.1433L826.243 77.0435L807.364 66.1433L807.364 44.343Z" fill="white" stroke="white" stroke-width="0.767005"/>
<path d="M105.364 44.343L124.243 33.4428L143.123 44.343L143.123 66.1433L124.243 77.0435L105.364 66.1433L105.364 44.343Z" fill="white" stroke="white" stroke-width="0.767005"/>
<path d="M457.364 44.343L476.243 33.4428L495.123 44.343L495.123 66.1433L476.243 77.0435L457.364 66.1433L457.364 44.343Z" fill="white" stroke="white" stroke-width="0.767005"/>
<path d="M829.364 150.343L848.243 139.443L867.123 150.343L867.123 172.143L848.243 183.043L829.364 172.143L829.364 150.343Z" fill="white" stroke="white" stroke-width="0.767005"/>
<path d="M127.364 150.343L146.243 139.443L165.123 150.343L165.123 172.143L146.243 183.043L127.364 172.143L127.364 150.343Z" fill="white" stroke="white" stroke-width="0.767005"/>
<path d="M479.364 150.343L498.243 139.443L517.123 150.343L517.123 172.143L498.243 183.043L479.364 172.143L479.364 150.343Z" fill="white" stroke="white" stroke-width="0.767005"/>
<path d="M149.364 44.343L168.243 33.4428L187.123 44.343L187.123 66.1433L168.243 77.0435L149.364 66.1433L149.364 44.343Z" fill="white" stroke="white" stroke-width="0.767005"/>
<path d="M501.364 44.343L520.243 33.4428L539.123 44.343L539.123 66.1433L520.243 77.0435L501.364 66.1433L501.364 44.343Z" fill="white" stroke="white" stroke-width="0.767005"/>
<path d="M171.364 150.343L190.243 139.443L209.123 150.343L209.123 172.143L190.243 183.043L171.364 172.143L171.364 150.343Z" fill="white" stroke="white" stroke-width="0.767005"/>
<path d="M523.364 150.343L542.243 139.443L561.123 150.343L561.123 172.143L542.243 183.043L523.364 172.143L523.364 150.343Z" fill="white" stroke="white" stroke-width="0.767005"/>
<path d="M193.364 44.343L212.243 33.4428L231.123 44.343L231.123 66.1433L212.243 77.0435L193.364 66.1433L193.364 44.343Z" fill="white" stroke="white" stroke-width="0.767005"/>
<path d="M545.364 44.343L564.243 33.4428L583.123 44.343L583.123 66.1433L564.243 77.0435L545.364 66.1433L545.364 44.343Z" fill="white" stroke="white" stroke-width="0.767005"/>
<path d="M215.364 150.343L234.243 139.443L253.123 150.343L253.123 172.143L234.243 183.043L215.364 172.143L215.364 150.343Z" fill="white" stroke="white" stroke-width="0.767005"/>
<path d="M567.364 150.343L586.243 139.443L605.123 150.343L605.123 172.143L586.243 183.043L567.364 172.143L567.364 150.343Z" fill="white" stroke="white" stroke-width="0.767005"/>
<path d="M237.364 44.343L256.243 33.4428L275.123 44.343L275.123 66.1433L256.243 77.0435L237.364 66.1433L237.364 44.343Z" fill="white" stroke="white" stroke-width="0.767005"/>
<path d="M589.364 44.343L608.243 33.4428L627.123 44.343L627.123 66.1433L608.243 77.0435L589.364 66.1433L589.364 44.343Z" fill="white" stroke="white" stroke-width="0.767005"/>
<path d="M259.364 150.343L278.243 139.443L297.123 150.343L297.123 172.143L278.243 183.043L259.364 172.143L259.364 150.343Z" fill="white" stroke="white" stroke-width="0.767005"/>
<path d="M611.364 150.343L630.243 139.443L649.123 150.343L649.123 172.143L630.243 183.043L611.364 172.143L611.364 150.343Z" fill="white" stroke="white" stroke-width="0.767005"/>
<path d="M281.364 44.343L300.243 33.4428L319.123 44.343L319.123 66.1433L300.243 77.0435L281.364 66.1433L281.364 44.343Z" fill="white" stroke="white" stroke-width="0.767005"/>
<path d="M633.364 44.343L652.243 33.4428L671.123 44.343L671.123 66.1433L652.243 77.0435L633.364 66.1433L633.364 44.343Z" fill="white" stroke="white" stroke-width="0.767005"/>
<path d="M303.364 150.343L322.243 139.443L341.123 150.343L341.123 172.143L322.243 183.043L303.364 172.143L303.364 150.343Z" fill="white" stroke="white" stroke-width="0.767005"/>
<path d="M655.364 150.343L674.243 139.443L693.123 150.343L693.123 172.143L674.243 183.043L655.364 172.143L655.364 150.343Z" fill="white" stroke="white" stroke-width="0.767005"/>
<path d="M325.364 44.343L344.243 33.4428L363.123 44.343L363.123 66.1433L344.243 77.0435L325.364 66.1433L325.364 44.343Z" fill="white" stroke="white" stroke-width="0.767005"/>
<path d="M676.364 44.343L695.243 33.4428L714.123 44.343L714.123 66.1433L695.243 77.0435L676.364 66.1433L676.364 44.343Z" fill="white" stroke="white" stroke-width="0.767005"/>
<path d="M347.364 150.343L366.243 139.443L385.123 150.343L385.123 172.143L366.243 183.043L347.364 172.143L347.364 150.343Z" fill="white" stroke="white" stroke-width="0.767005"/>
<path d="M699.364 150.343L718.243 139.443L737.123 150.343L737.123 172.143L718.243 183.043L699.364 172.143L699.364 150.343Z" fill="white" stroke="white" stroke-width="0.767005"/>
<path d="M-2.63648 150.343L16.2431 139.443L35.1228 150.343L35.1228 172.143L16.2431 183.043L-2.63648 172.143L-2.63648 150.343Z" fill="white" stroke="white" stroke-width="0.767005"/>
<path d="M697.364 221.343L716.243 210.443L735.123 221.343L735.123 243.143L716.243 254.043L697.364 243.143L697.364 221.343Z" fill="white" stroke="white" stroke-width="0.767005"/>
<path d="M-4.63648 221.343L14.2431 210.443L33.1228 221.343L33.1228 243.143L14.2431 254.043L-4.63648 243.143L-4.63648 221.343Z" fill="white" stroke="white" stroke-width="0.767005"/>
<path d="M347.364 221.343L366.243 210.443L385.123 221.343L385.123 243.143L366.243 254.043L347.364 243.143L347.364 221.343Z" fill="white" stroke="white" stroke-width="0.767005"/>
<path d="M719.364 115.343L738.243 104.443L757.123 115.343L757.123 137.143L738.243 148.043L719.364 137.143L719.364 115.343Z" fill="white" stroke="white" stroke-width="0.767005"/>
<path d="M17.3635 115.343L36.2431 104.443L55.1228 115.343L55.1228 137.143L36.2431 148.043L17.3635 137.143L17.3635 115.343Z" fill="white" stroke="white" stroke-width="0.767005"/>
<path d="M369.364 115.343L388.243 104.443L407.123 115.343L407.123 137.143L388.243 148.043L369.364 137.143L369.364 115.343Z" fill="white" stroke="white" stroke-width="0.767005"/>
<path d="M741.364 221.343L760.243 210.443L779.123 221.343L779.123 243.143L760.243 254.043L741.364 243.143L741.364 221.343Z" fill="white" stroke="white" stroke-width="0.767005"/>
<path d="M39.3635 221.343L58.2431 210.443L77.1228 221.343L77.1228 243.143L58.2431 254.043L39.3635 243.143L39.3635 221.343Z" fill="white" stroke="white" stroke-width="0.767005"/>
<path d="M391.364 221.343L410.243 210.443L429.123 221.343L429.123 243.143L410.243 254.043L391.364 243.143L391.364 221.343Z" fill="white" stroke="white" stroke-width="0.767005"/>
<path d="M763.364 115.343L782.243 104.443L801.123 115.343L801.123 137.143L782.243 148.043L763.364 137.143L763.364 115.343Z" fill="white" stroke="white" stroke-width="0.767005"/>
<path d="M61.3635 115.343L80.2431 104.443L99.1228 115.343L99.1228 137.143L80.2431 148.043L61.3635 137.143L61.3635 115.343Z" fill="white" stroke="white" stroke-width="0.767005"/>
<path d="M413.364 115.343L432.243 104.443L451.123 115.343L451.123 137.143L432.243 148.043L413.364 137.143L413.364 115.343Z" fill="white" stroke="white" stroke-width="0.767005"/>
<path d="M785.364 221.343L804.243 210.443L823.123 221.343L823.123 243.143L804.243 254.043L785.364 243.143L785.364 221.343Z" fill="white" stroke="white" stroke-width="0.767005"/>
<path d="M83.3635 221.343L102.243 210.443L121.123 221.343L121.123 243.143L102.243 254.043L83.3635 243.143L83.3635 221.343Z" fill="white" stroke="white" stroke-width="0.767005"/>
<path d="M435.364 221.343L454.243 210.443L473.123 221.343L473.123 243.143L454.243 254.043L435.364 243.143L435.364 221.343Z" fill="white" stroke="white" stroke-width="0.767005"/>
<path d="M807.364 115.343L826.243 104.443L845.123 115.343L845.123 137.143L826.243 148.043L807.364 137.143L807.364 115.343Z" fill="white" stroke="white" stroke-width="0.767005"/>
<path d="M105.364 115.343L124.243 104.443L143.123 115.343L143.123 137.143L124.243 148.043L105.364 137.143L105.364 115.343Z" fill="white" stroke="white" stroke-width="0.767005"/>
<path d="M457.364 115.343L476.243 104.443L495.123 115.343L495.123 137.143L476.243 148.043L457.364 137.143L457.364 115.343Z" fill="white" stroke="white" stroke-width="0.767005"/>
<path d="M829.364 221.343L848.243 210.443L867.123 221.343L867.123 243.143L848.243 254.043L829.364 243.143L829.364 221.343Z" fill="white" stroke="white" stroke-width="0.767005"/>
<path d="M127.364 221.343L146.243 210.443L165.123 221.343L165.123 243.143L146.243 254.043L127.364 243.143L127.364 221.343Z" fill="white" stroke="white" stroke-width="0.767005"/>
<path d="M479.364 221.343L498.243 210.443L517.123 221.343L517.123 243.143L498.243 254.043L479.364 243.143L479.364 221.343Z" fill="white" stroke="white" stroke-width="0.767005"/>
<path d="M149.364 115.343L168.243 104.443L187.123 115.343L187.123 137.143L168.243 148.043L149.364 137.143L149.364 115.343Z" fill="white" stroke="white" stroke-width="0.767005"/>
<path d="M501.364 115.343L520.243 104.443L539.123 115.343L539.123 137.143L520.243 148.043L501.364 137.143L501.364 115.343Z" fill="white" stroke="white" stroke-width="0.767005"/>
<path d="M171.364 221.343L190.243 210.443L209.123 221.343L209.123 243.143L190.243 254.043L171.364 243.143L171.364 221.343Z" fill="white" stroke="white" stroke-width="0.767005"/>
<path d="M523.364 221.343L542.243 210.443L561.123 221.343L561.123 243.143L542.243 254.043L523.364 243.143L523.364 221.343Z" fill="white" stroke="white" stroke-width="0.767005"/>
<path d="M193.364 115.343L212.243 104.443L231.123 115.343L231.123 137.143L212.243 148.043L193.364 137.143L193.364 115.343Z" fill="white" stroke="white" stroke-width="0.767005"/>
<path d="M545.364 115.343L564.243 104.443L583.123 115.343L583.123 137.143L564.243 148.043L545.364 137.143L545.364 115.343Z" fill="white" stroke="white" stroke-width="0.767005"/>
<path d="M215.364 221.343L234.243 210.443L253.123 221.343L253.123 243.143L234.243 254.043L215.364 243.143L215.364 221.343Z" fill="white" stroke="white" stroke-width="0.767005"/>
<path d="M567.364 221.343L586.243 210.443L605.123 221.343L605.123 243.143L586.243 254.043L567.364 243.143L567.364 221.343Z" fill="white" stroke="white" stroke-width="0.767005"/>
<path d="M237.364 115.343L256.243 104.443L275.123 115.343L275.123 137.143L256.243 148.043L237.364 137.143L237.364 115.343Z" fill="white" stroke="white" stroke-width="0.767005"/>
<path d="M589.364 115.343L608.243 104.443L627.123 115.343L627.123 137.143L608.243 148.043L589.364 137.143L589.364 115.343Z" fill="white" stroke="white" stroke-width="0.767005"/>
<path d="M259.364 221.343L278.243 210.443L297.123 221.343L297.123 243.143L278.243 254.043L259.364 243.143L259.364 221.343Z" fill="white" stroke="white" stroke-width="0.767005"/>
<path d="M611.364 221.343L630.243 210.443L649.123 221.343L649.123 243.143L630.243 254.043L611.364 243.143L611.364 221.343Z" fill="white" stroke="white" stroke-width="0.767005"/>
<path d="M281.364 115.343L300.243 104.443L319.123 115.343L319.123 137.143L300.243 148.043L281.364 137.143L281.364 115.343Z" fill="white" stroke="white" stroke-width="0.767005"/>
<path d="M633.364 115.343L652.243 104.443L671.123 115.343L671.123 137.143L652.243 148.043L633.364 137.143L633.364 115.343Z" fill="white" stroke="white" stroke-width="0.767005"/>
<path d="M303.364 221.343L322.243 210.443L341.123 221.343L341.123 243.143L322.243 254.043L303.364 243.143L303.364 221.343Z" fill="white" stroke="white" stroke-width="0.767005"/>
<path d="M655.364 221.343L674.243 210.443L693.123 221.343L693.123 243.143L674.243 254.043L655.364 243.143L655.364 221.343Z" fill="white" stroke="white" stroke-width="0.767005"/>
<path d="M325.364 115.343L344.243 104.443L363.123 115.343L363.123 137.143L344.243 148.043L325.364 137.143L325.364 115.343Z" fill="white" stroke="white" stroke-width="0.767005"/>
<path d="M677.364 115.343L696.243 104.443L715.123 115.343L715.123 137.143L696.243 148.043L677.364 137.143L677.364 115.343Z" fill="white" stroke="white" stroke-width="0.767005"/>
</g>
</svg>
