<svg width="466" height="418" viewBox="0 0 466 418" fill="none" xmlns="http://www.w3.org/2000/svg">
<path d="M209.04 244.605L187.576 207L209.04 169.395L251.96 169.395L273.424 207L251.96 244.605L209.04 244.605Z" fill="#CFCFCF" stroke="white"/>
<path d="M30.5387 258.395L0.577351 206.5L30.5387 154.605L90.4613 154.605L120.423 206.5L90.4613 258.395L30.5387 258.395Z" stroke="white"/>
<path d="M374.789 231.615L360.577 207L374.789 182.385L403.211 182.385L417.423 207L403.211 231.615L374.789 231.615Z" stroke="white"/>
<path d="M316.789 333.615L302.577 309L316.789 284.385L345.211 284.385L359.423 309L345.211 333.615L316.789 333.615Z" stroke="white"/>
<path d="M442.284 312.423L434.582 299.5L442.284 286.577L457.716 286.577L465.418 299.5L457.716 312.423L442.284 312.423Z" stroke="white"/>
<path d="M442.284 130.423L434.582 117.5L442.284 104.577L457.716 104.577L465.418 117.5L457.716 130.423L442.284 130.423Z" stroke="white"/>
<path d="M377.289 29.3564L369.577 16L377.289 2.64359L392.711 2.64359L400.423 16L392.711 29.3564L377.289 29.3564Z" stroke="white"/>
<path d="M381.289 415.356L373.577 402L381.289 388.644L396.711 388.644L404.423 402L396.711 415.356L381.289 415.356Z" stroke="white"/>
<path d="M312.789 132.615L298.577 108L312.789 83.3853L341.211 83.3853L355.423 108L341.211 132.615L312.789 132.615Z" stroke="white"/>
<line x1="177" y1="207.5" x2="130" y2="207.5" stroke="white"/>
<line x1="341" y1="207.5" x2="293" y2="207.5" stroke="white"/>
<line x1="292.705" y1="299.878" x2="265.874" y2="260.923" stroke="white"/>
<line x1="381.175" y1="383.968" x2="354.344" y2="345.013" stroke="white"/>
<line x1="438.434" y1="282.359" x2="411.603" y2="243.404" stroke="white"/>
<line y1="-0.5" x2="47.3008" y2="-0.5" transform="matrix(-0.567244 0.82355 0.82355 0.567244 438.846 131.876)" stroke="white"/>
<line y1="-0.5" x2="47.3008" y2="-0.5" transform="matrix(-0.567244 0.82355 0.82355 0.567244 374.959 31.2749)" stroke="white"/>
<line y1="-0.5" x2="47.3008" y2="-0.5" transform="matrix(-0.567244 0.82355 0.82355 0.567244 287.831 118)" stroke="white"/>
</svg>
